<?xml version="1.0" encoding="UTF-8" standalone="no"?>
<svg
   xmlns:dc="http://purl.org/dc/elements/1.1/"
   xmlns:cc="http://creativecommons.org/ns#"
   xmlns:rdf="http://www.w3.org/1999/02/22-rdf-syntax-ns#"
   xmlns:svg="http://www.w3.org/2000/svg"
   xmlns="http://www.w3.org/2000/svg"
   xmlns:sodipodi="http://sodipodi.sourceforge.net/DTD/sodipodi-0.dtd"
   xmlns:inkscape="http://www.inkscape.org/namespaces/inkscape"
   id="svg8"
   version="1.1"
   viewBox="0 0 79.374999 79.374999"
   height="300"
   width="300"
   sodipodi:docname="logo_azul.svg"
   inkscape:version="0.92.3 (2405546, 2018-03-11)">
  <sodipodi:namedview
     pagecolor="#ffffff"
     bordercolor="#666666"
     borderopacity="1"
     objecttolerance="10"
     gridtolerance="10"
     guidetolerance="10"
     inkscape:pageopacity="0"
     inkscape:pageshadow="2"
     inkscape:window-width="1920"
     inkscape:window-height="1017"
     id="namedview9"
     showgrid="false"
     inkscape:zoom="0.78666667"
     inkscape:cx="32.13937"
     inkscape:cy="28.980989"
     inkscape:window-x="-8"
     inkscape:window-y="-8"
     inkscape:window-maximized="1"
     inkscape:current-layer="svg8" />
  <defs
     id="defs2" />
  <metadata
     id="metadata5">
    <rdf:RDF>
      <cc:Work
         rdf:about="">
        <dc:format>image/svg+xml</dc:format>
        <dc:type
           rdf:resource="http://purl.org/dc/dcmitype/StillImage" />
        <dc:title></dc:title>
      </cc:Work>
    </rdf:RDF>
  </metadata>
  <rect
     style="opacity:1;fill:none;fill-opacity:1;stroke:#0277bd;stroke-width:3.15630007;stroke-miterlimit:4;stroke-dasharray:none;stroke-opacity:1"
     id="rect4650"
     width="75.96772"
     height="76.452759"
     x="1.744401"
     y="1.4910234" />
  <path
     style="opacity:1;fill:#0277bd;fill-opacity:1;stroke:none;stroke-width:0.33404174;stroke-opacity:1"
     d="M 7.2998954,5.1260977 V 74.30856 H 72.156492 V 5.1260977 Z M 52.382416,6.741871 c 0.227505,0 0.441824,0.00703 0.642954,0.021098 0.20113,0.011259 0.39237,0.026712 0.573716,0.046388 0.184641,0.019679 0.359396,0.042172 0.524257,0.067475 0.164861,0.025293 0.324773,0.052012 0.479743,0.080127 l 0.02966,1.2356272 H 54.306327 L 54.157952,7.4588004 C 53.927147,7.3379076 53.658424,7.2451306 53.351782,7.1804692 53.048439,7.1129947 52.738502,7.0792559 52.42197,7.0792559 c -0.385772,0 -0.730332,0.044985 -1.033675,0.134949 -0.300047,0.089967 -0.553931,0.2375658 -0.761656,0.4428024 -0.207725,0.2024236 -0.36764,0.4709151 -0.479743,0.8054776 -0.108808,0.3317495 -0.163212,0.7408131 -0.163212,1.227191 0,0.4273401 0.0544,0.7998541 0.163212,1.1175481 0.108807,0.31488 0.265424,0.577751 0.469853,0.788608 0.204425,0.208046 0.453364,0.364081 0.746817,0.468105 0.296748,0.104023 0.633064,0.156035 1.008945,0.156035 0.204429,0 0.398964,-0.01126 0.583606,-0.03374 0.18794,-0.02249 0.361045,-0.05341 0.519312,-0.09278 0.161565,-0.03936 0.304992,-0.08434 0.430284,-0.134949 0.128592,-0.05342 0.235754,-0.10824 0.321481,-0.164468 l 0.182996,-0.843433 h 0.321477 l -0.02966,1.328404 c -0.138485,0.03374 -0.296751,0.06747 -0.474798,0.101213 -0.17805,0.03093 -0.36764,0.05904 -0.56877,0.08434 -0.20113,0.02529 -0.41215,0.04498 -0.633065,0.05904 -0.220914,0.01407 -0.441824,0.0211 -0.662738,0.0211 -0.540742,0 -1.023785,-0.06466 -1.449124,-0.193987 -0.422045,-0.129329 -0.779791,-0.31629 -1.073244,-0.560883 -0.290153,-0.244595 -0.511067,-0.542609 -0.662738,-0.894038 -0.151672,-0.354242 -0.227509,-0.753466 -0.227509,-1.1976715 0,-0.5060604 0.07584,-0.9446432 0.227509,-1.3157546 0.15497,-0.3711082 0.37753,-0.6775551 0.667684,-0.9193406 0.293452,-0.2445955 0.652848,-0.4259331 1.078188,-0.5440127 0.425339,-0.1180796 0.911681,-0.177121 1.459018,-0.177121 z m -31.1438,0.016872 h 0.939706 l 2.349262,5.364223 0.840786,0.113866 v 0.223506 h -2.804277 v -0.223506 l 0.890248,-0.113866 -0.657794,-1.632038 h -2.61139 l -0.667684,1.632038 0.890244,0.113866 v 0.223506 h -2.181102 v -0.223506 l 0.751762,-0.113866 z m 23.087065,0 h 0.939706 l 2.349262,5.364223 0.840789,0.113866 v 0.223506 h -2.80428 v -0.223506 l 0.890248,-0.113866 -0.657794,-1.632038 h -2.61139 l -0.667684,1.632038 0.890248,0.113866 v 0.223506 H 41.31368 v -0.223506 l 0.751766,-0.113866 z m 17.468618,0 h 0.939707 l 2.349262,5.364223 0.840789,0.113866 v 0.223506 h -2.804276 v -0.223506 l 0.890244,-0.113866 -0.657794,-1.632038 h -2.611387 l -0.667687,1.632038 0.890247,0.113866 v 0.223506 h -2.181105 v -0.223506 l 0.751765,-0.113866 z M 13.533036,6.805128 h 4.975488 V 8.1588357 H 18.182102 L 18.023836,7.2437148 c -0.105512,-0.011259 -0.2341,-0.021098 -0.385775,-0.029519 -0.148373,-0.00842 -0.300044,-0.014066 -0.455015,-0.016872 -0.154966,-0.00561 -0.301693,-0.00842 -0.440175,-0.00842 -0.138485,-0.00278 -0.245643,-0.00423 -0.321481,-0.00423 h -1.083133 v 2.3573914 h 1.953597 l 0.153321,-0.6747451 h 0.301697 V 10.604791 H 17.445175 L 17.291854,9.9216124 h -1.953597 v 2.2013536 l 1.102918,0.113866 v 0.223506 H 13.59733 v -0.223506 l 0.786385,-0.113866 V 7.138288 L 13.533036,7.0286415 Z m 12.206273,0 h 2.863625 c 0.464908,0 0.852329,0.035142 1.162267,0.1054299 0.313236,0.070285 0.563825,0.1714978 0.751765,0.3036337 0.187941,0.1293259 0.321478,0.2867675 0.400611,0.4723216 0.07913,0.1855542 0.118697,0.3950074 0.118697,0.6283566 0,0.2164799 -0.03791,0.4104703 -0.113752,0.5819681 -0.07254,0.1686848 -0.171456,0.3176932 -0.296748,0.4470191 -0.125296,0.1293258 -0.270373,0.2375658 -0.435234,0.3247197 -0.164861,0.084344 -0.336313,0.1490084 -0.514363,0.1939904 l 1.795331,2.2603949 0.717142,0.113866 v 0.223506 H 30.601044 L 28.736471,9.9806476 H 27.54453 v 2.1423154 l 1.004,0.113866 v 0.223506 h -2.744927 v -0.223506 l 0.786385,-0.113866 V 7.1382849 L 25.739309,7.0286384 Z m 6.765874,0 h 2.008 l 2.156377,4.301499 2.354207,-4.301499 H 40.92296 V 7.0286375 L 40.07228,7.138284 v 4.984678 l 0.85068,0.113866 v 0.223506 h -2.690524 v -0.223506 l 0.890248,-0.113866 V 7.5979537 l -2.64601,4.8623813 H 36.303569 L 33.875174,7.5979537 v 4.5250093 l 0.890247,0.113866 v 0.223506 h -2.260238 v -0.223506 l 0.850679,-0.113866 V 7.1382849 L 32.505183,7.0286384 Z m 23.161252,0 h 2.650959 V 7.0286375 L 57.466711,7.138284 v 4.984678 l 0.850683,0.113866 v 0.223506 h -2.650959 v -0.223506 l 0.85068,-0.113866 V 7.1382849 L 55.666435,7.0286384 Z M 27.54453,7.1846734 v 2.4164297 h 0.875409 c 0.303343,0 0.558876,-0.022486 0.766601,-0.067474 0.207725,-0.047792 0.375885,-0.1208897 0.504473,-0.2192899 0.128591,-0.1012133 0.220914,-0.2291326 0.276967,-0.3837642 0.05605,-0.1546284 0.08408,-0.3401826 0.08408,-0.5566624 0,-0.2249161 -0.03133,-0.4132833 -0.09397,-0.5650987 C 29.895442,7.656995 29.796525,7.5346957 29.661338,7.4419186 29.529451,7.3491416 29.357995,7.2830736 29.146975,7.2437148 28.939251,7.2043528 28.687012,7.1846734 28.390264,7.1846734 Z M 21.47107,7.366011 20.333533,10.11138 h 2.309694 z m 23.087065,0 -1.137537,2.745369 h 2.309693 z m 17.468618,0 -1.137537,2.745369 h 2.309698 z m -28.485067,8.56625 c 0.164749,-0.0065 0.332793,-0.0062 0.503764,6.17e-4 0.390792,0.01558 0.797256,0.06619 1.21879,0.152419 1.005791,0.205737 1.906808,0.600211 2.109743,0.923558 0.194806,0.310376 0.353981,1.544856 0.353981,2.743561 0,1.700321 -0.115591,2.179669 -0.525668,2.179669 -0.461435,0 -1.275498,-1.680496 -1.280968,-2.645365 -0.0037,-0.603452 -1.66115,-1.673004 -2.592315,-1.673004 -1.922555,0 -2.998352,2.343002 -2.005881,4.36837 0.392865,0.801733 1.096822,1.372892 2.593726,2.103156 4.142231,2.020778 5.061437,3.314882 5.0412,7.100491 -0.01588,2.975575 -0.735736,4.574217 -2.689109,5.975709 -0.909413,0.652497 -1.492353,0.807128 -2.99999,0.795237 -1.029294,-0.0081 -2.441401,-0.251795 -3.137768,-0.541604 l -1.266128,-0.527146 -0.105277,-2.567647 c -0.0916,-2.228972 -0.0288,-2.554549 0.478332,-2.465831 0.340282,0.05954 0.863486,0.807939 1.25341,1.792292 0.748897,1.89053 1.780484,2.782723 3.2169,2.782723 3.069979,0 4.385201,-4.009577 1.935227,-5.899805 -0.54467,-0.420239 -1.932344,-1.28212 -3.083363,-1.91519 -2.400106,-1.320085 -3.320043,-2.438071 -3.935454,-4.782859 -0.334428,-1.27435 -0.33776,-2.05517 -0.01414,-3.370715 0.699959,-2.845447 2.459715,-4.431399 4.930978,-4.528624 z m 20.485565,6.9806 c 0.241469,-0.0059 0.341261,0.442633 0.341261,1.364552 v 1.419978 l 1.278848,-0.957296 c 2.202608,-1.648997 4.498313,-1.113778 5.570399,1.298885 0.212376,0.477961 0.385775,2.999715 0.385775,5.608818 0,4.469287 0.04135,4.751276 0.723502,4.935883 0.397922,0.107685 0.723502,0.394345 0.723502,0.637392 0,0.346759 -0.623214,0.442201 -2.894009,0.442201 -2.08977,0 -2.894008,-0.108499 -2.894008,-0.389789 0,-0.214252 0.366276,-0.526554 0.81394,-0.694023 0.748528,-0.280003 0.82239,-0.535996 0.918507,-3.186966 0.123683,-3.412569 -0.411383,-7.133094 -1.077479,-7.493286 -0.839096,-0.453734 -1.426359,-0.286718 -2.525898,0.716917 l -1.076777,0.981997 0.117287,4.075581 c 0.09649,3.354781 0.229252,4.181261 0.750351,4.671405 0.348186,0.327511 0.633065,0.79557 0.633065,1.039829 0,0.347925 -0.593851,0.442646 -2.744928,0.437982 -1.509865,-0.0031 -2.838758,-0.132648 -2.952652,-0.287971 -0.113933,-0.15531 0.225791,-0.576795 0.755297,-0.936811 0.958633,-0.651574 0.963021,-0.673663 0.963021,-4.884069 0,-3.818391 -0.07035,-4.289788 -0.723502,-4.846718 -1.011094,-0.862132 -0.903379,-1.403813 0.368816,-1.853142 0.600879,-0.212223 1.368967,-0.784814 1.706307,-1.271772 0.378164,-0.545854 0.651565,-0.824969 0.839375,-0.829577 z M 45.94791,23.81172 c 0.749016,-0.0033 1.093624,0.172812 1.700653,0.690408 0.919503,0.784068 0.932117,0.857539 0.937587,5.513028 0.0056,4.730862 0.275784,6.106944 0.987041,5.023237 0.244641,-0.372734 0.433729,-0.428909 0.611869,-0.183145 0.400111,0.552014 -0.120242,2.066469 -0.922747,2.685726 -0.857853,0.661972 -1.690032,0.358218 -2.40155,-0.876567 l -0.454305,-0.787402 -1.227978,1.04706 c -2.345048,1.999559 -4.918259,1.117131 -4.918259,-1.686863 0,-1.836495 0.691444,-2.665273 3.651425,-4.379215 l 2.136592,-1.237435 v -1.70554 c 0,-0.937909 -0.168507,-1.973824 -0.37447,-2.301965 -0.86987,-1.385897 -2.88129,-0.15399 -2.88129,1.764578 0,0.753395 -0.265673,1.151444 -1.112807,1.665777 -1.490834,0.905152 -1.968103,0.486431 -1.420864,-1.246469 0.229371,-0.726304 1.010822,-1.854036 1.757885,-2.536922 1.096055,-1.001923 1.655858,-1.259696 3.022601,-1.39106 0.364207,-0.035 0.658944,-0.05613 0.908617,-0.05723 z m 0.08196,6.911318 -1.437819,1.298882 c -1.418097,1.281044 -1.781526,2.3591 -1.218085,3.611091 h 7.24e-4 c 0.317541,0.705575 1.456829,0.598939 2.111154,-0.197602 0.373055,-0.454145 0.559401,-1.365197 0.553931,-2.698981 z m -32.900977,0.771137 h 4.184867 c 4.133422,0 4.183864,0.0086 4.069699,0.694024 -0.08277,0.496915 -0.397687,0.721787 -1.109982,0.791619 l -0.994815,0.0976 -0.01129,9.927186 c -0.0061,5.459952 -0.160889,10.909989 -0.344087,12.111677 -0.458726,3.009012 -1.67023,5.629161 -3.161791,6.83782 -2.341112,1.897047 -4.441341,0.948958 -4.441341,-2.004957 0,-2.210817 1.683239,-2.641414 2.713133,-0.694024 0.803681,1.519662 1.467454,1.579983 1.738102,0.15784 0.381488,-2.004489 -0.179056,-25.895389 -0.61328,-26.140349 -0.220951,-0.124671 -0.767596,-0.229009 -1.21526,-0.231341 -0.625558,-0.0036 -0.813939,-0.183293 -0.813939,-0.775955 z m 26.005098,7.143261 c 0.265775,0.02573 0.404662,0.551268 0.40697,1.570591 l 0.0029,1.619388 0.921336,-1.310933 c 0.50681,-0.721023 1.131322,-1.310934 1.387652,-1.310934 0.87768,0 1.663208,1.111592 1.663208,2.353172 0,1.830001 -1.112352,2.515021 -2.358447,1.452511 -1.016687,-0.8669 -1.247943,0.02566 -1.253409,4.846114 -0.0057,4.636512 0.16523,5.228675 1.513418,5.228675 0.409983,0 0.651434,0.228494 0.651434,0.61691 h 7.24e-4 c 0,0.571212 -0.241169,0.616909 -3.25576,0.616909 -2.976745,0 -3.25576,-0.05139 -3.25576,-0.596428 0,-0.32786 0.32558,-0.6839 0.723503,-0.791619 0.681531,-0.184434 0.723502,-0.467004 0.723502,-4.859371 0,-4.394091 -0.0466,-4.705069 -0.804046,-5.392538 l -0.803345,-0.72957 1.172161,-0.782584 c 0.645013,-0.430431 1.417992,-1.186811 1.717612,-1.680839 0.355977,-0.586968 0.639724,-0.86946 0.846439,-0.849454 z m 24.097424,0.56992 c 2.095266,0 4.183409,2.322249 4.675209,5.199149 l 0.229626,1.345876 -2.814167,-0.08495 c -4.520054,-0.135862 -4.442665,-0.155958 -4.43993,1.172373 0.0033,1.800213 0.693274,3.493141 1.812995,4.447895 1.208553,1.030486 2.092444,1.098365 3.348317,0.256042 1.119023,-0.750517 1.709839,-0.787667 1.709839,-0.106636 0,0.823859 -1.803912,2.603829 -3.110918,3.069488 -0.663759,0.236473 -1.334497,0.411062 -1.490104,0.38798 -1.551241,-0.230304 -2.02151,-0.446922 -2.968904,-1.366957 C 57.6632,51.080165 57.20073,45.24504 59.269816,42.006945 c 1.08267,-1.694361 2.64643,-2.799592 3.961597,-2.799589 z m -34.557825,0.0235 c 1.484413,0.0466 2.99396,0.911216 4.170736,2.750792 1.020869,1.595868 1.085069,1.897775 1.079603,5.089506 -0.005,3.096493 -0.09217,3.534162 -0.997644,5.00697 -0.54568,0.887616 -1.356968,1.807971 -1.803102,2.045321 -4.335543,2.306527 -8.571174,-1.745645 -8.150703,-7.797524 0.300358,-4.323267 2.774272,-6.983512 5.404362,-7.093257 0.09863,-0.0041 0.197787,-0.0049 0.296748,-0.0019 z m 21.685283,0.283152 c 1.087344,0 1.75281,0.225021 2.648835,0.895843 1.134531,0.849377 1.258391,0.874152 2.377526,0.472926 1.138221,-0.408083 1.193579,-0.39443 1.543801,0.390988 0.402188,0.902015 0.115978,2.558612 -0.442298,2.558612 -0.196243,0 -0.647122,-0.132703 -1.001881,-0.294599 -0.587863,-0.268254 -0.630184,-0.158524 -0.472678,1.239243 0.214262,1.901288 -0.596665,3.849791 -2.121048,5.094925 -0.946026,0.772714 -1.386356,0.900667 -3.097493,0.900667 -2.091891,0 -3.021895,0.534352 -3.021895,1.736867 0,0.797704 0.521826,0.954004 3.456419,1.031997 4.056311,0.107873 5.690514,1.43864 5.690514,4.634054 0,2.495786 -1.322934,4.146587 -3.967956,4.950942 -3.851484,1.171234 -7.711234,-0.482251 -7.711234,-3.30324 0,-1.040511 0.216725,-1.444683 1.187701,-2.218223 l 1.186995,-0.946451 -1.028729,-0.78379 C 44.884861,55.34097 44.498739,54.697228 44.375139,53.857166 44.21174,52.745899 44.338277,52.490683 45.649038,51.287108 L 47.104522,49.95027 46.18248,48.762839 c -1.41789,-1.826923 -1.570813,-4.375896 -0.393545,-6.568523 1.047106,-1.950222 2.292742,-2.680304 4.569936,-2.680304 z m -21.830125,1.036816 c -0.286941,-0.0165 -0.581486,0.03798 -0.871874,0.170496 -1.23118,0.561829 -1.588576,2.294876 -1.450539,7.029397 0.109246,3.747228 0.221204,4.435517 0.815355,4.994922 0.383485,0.361028 1.132581,0.648841 1.688643,0.648841 0.854637,0 1.091414,-0.206276 1.636355,-1.422992 0.762774,-1.70302 0.898257,-7.567966 0.220444,-9.550656 -0.387081,-1.132304 -1.177554,-1.820461 -2.038384,-1.870008 z m 34.720332,0.0223 c -0.636512,-0.04938 -1.32308,0.489034 -1.882238,1.629629 -0.745518,1.520748 -0.622433,1.883753 0.688882,2.028452 1.079183,0.119089 2.83284,-0.01292 3.090429,-0.232544 0.05911,-0.0504 -0.08335,-0.737596 -0.316532,-1.527212 -0.357837,-1.211738 -0.944033,-1.848944 -1.580541,-1.898325 z m -13.154455,0.236764 c -0.412013,-0.01351 -0.768208,0.09476 -1.029439,0.31749 -1.405009,1.198026 -1.439961,6.296623 -0.0537,7.799332 0.825831,0.895204 1.12331,0.939304 1.894248,0.281946 0.788773,-0.672567 1.107063,-1.824042 1.104328,-3.988223 -0.0042,-2.935091 -0.410547,-4.125452 -1.486572,-4.355723 -0.148445,-0.03177 -0.291535,-0.05032 -0.42887,-0.05482 z m 0.329247,16.599332 c -1.312161,0.0025 -2.564862,0.106704 -2.783786,0.231341 -0.577402,0.328749 -1.230095,1.479474 -1.230095,2.169425 0,0.828359 1.299081,2.153235 2.268009,2.312811 1.414761,0.232988 1.644068,0.223513 2.682753,-0.112056 1.60586,-0.518812 2.64601,-1.522906 2.64601,-2.55379 0,-1.560863 -0.861286,-2.053561 -3.582891,-2.047731 z m -22.913959,9.481374 c 0.504472,0 0.956191,0.05623 1.355152,0.168688 0.40226,0.112456 0.743521,0.286764 1.023784,0.522926 0.280263,0.23616 0.494582,0.53558 0.642955,0.898255 0.148375,0.362675 0.222563,0.794231 0.222563,1.294666 0,0.500437 -0.07419,0.934803 -0.222563,1.303101 -0.148373,0.365489 -0.362692,0.667719 -0.642955,0.906691 -0.280263,0.238973 -0.621524,0.417497 -1.023784,0.53558 -0.398961,0.11526 -0.85068,0.172901 -1.355152,0.172901 -0.504473,0 -0.956192,-0.05764 -1.355156,-0.172901 -0.398961,-0.118083 -0.738573,-0.296607 -1.018836,-0.53558 -0.280263,-0.238972 -0.494582,-0.541202 -0.642958,-0.906691 -0.148372,-0.368298 -0.22256,-0.802664 -0.22256,-1.303101 0,-0.500435 0.07089,-0.931991 0.21267,-1.294666 0.145076,-0.362675 0.354451,-0.662095 0.628119,-0.898255 0.273668,-0.236162 0.611631,-0.41047 1.01389,-0.522926 0.40226,-0.11246 0.863869,-0.168688 1.384831,-0.168688 z m 7.51269,0 c 0.428639,0 0.835844,0.02249 1.221619,0.06747 0.38907,0.04498 0.758357,0.106837 1.107863,0.185555 v 1.214541 h -0.331372 l -0.133536,-0.700048 c -0.227506,-0.137759 -0.501174,-0.243189 -0.821005,-0.316287 -0.316533,-0.07591 -0.651199,-0.113863 -1.004001,-0.113863 -0.385775,0 -0.730332,0.04639 -1.033674,0.139166 -0.300048,0.08997 -0.553932,0.237569 -0.761656,0.442802 -0.207725,0.205237 -0.367641,0.475135 -0.479744,0.809695 -0.108807,0.331749 -0.163211,0.738003 -0.163211,1.218757 0,0.486381 0.06429,0.892632 0.192886,1.218758 0.128591,0.323317 0.301693,0.581968 0.519311,0.775959 0.220911,0.19399 0.474799,0.331749 0.761653,0.41328 0.290157,0.08153 0.595149,0.122299 0.914977,0.122299 0.161565,0 0.321477,-0.0085 0.479743,-0.02529 0.161565,-0.01968 0.311587,-0.04358 0.450069,-0.07169 0.141781,-0.0281 0.267077,-0.05904 0.375885,-0.09278 0.108807,-0.03374 0.194535,-0.06607 0.257179,-0.09699 V 70.475193 L 35.72491,70.365546 V 70.13782 h 2.448179 v 0.227726 l -0.647903,0.109647 v 1.838678 c -0.382476,0.106836 -0.779791,0.1968 -1.191941,0.269898 -0.41215,0.0731 -0.855624,0.109646 -1.330423,0.109646 -0.524256,0 -0.997405,-0.06045 -1.419449,-0.181337 -0.418745,-0.123703 -0.776495,-0.305041 -1.073243,-0.544013 -0.296748,-0.241782 -0.524257,-0.539796 -0.682523,-0.894038 -0.158266,-0.354242 -0.237399,-0.763306 -0.237399,-1.227191 0,-0.989628 0.290157,-1.729035 0.870463,-2.218226 0.583606,-0.492001 1.437592,-0.738003 2.561932,-0.738003 z m 30.243662,0.01687 h 0.939706 l 2.349262,5.364223 0.840789,0.113866 v 0.223506 H 66.591741 V 72.38556 l 0.890247,-0.113866 -0.657793,-1.632038 h -2.611391 l -0.667684,1.632038 0.890248,0.113866 v 0.223506 H 62.254262 V 72.38556 l 0.751762,-0.113866 z m -55.205191,0.04637 h 3.012001 c 0.550636,0 1.046864,0.0492 1.488693,0.147602 0.445124,0.0984 0.8243,0.258652 1.137537,0.480755 0.313233,0.222103 0.553931,0.510277 0.722087,0.864516 0.171456,0.354242 0.257184,0.788608 0.257184,1.303101 0,0.461076 -0.06924,0.870143 -0.207725,1.227195 -0.138482,0.357052 -0.347856,0.657875 -0.628119,0.902471 -0.280263,0.244595 -0.63471,0.430149 -1.063349,0.556665 -0.42534,0.126513 -0.926517,0.189771 -1.503528,0.189771 -0.187941,0 -0.394016,-0.0015 -0.618225,-0.0042 -0.220915,0 -0.43853,-0.0015 -0.652849,-0.0042 -0.214319,-0.0028 -0.418745,-0.0056 -0.61328,-0.0084 h -0.479747 -0.85068 v -0.223507 l 0.85068,-0.113866 v -4.984678 l -0.85068,-0.109646 z m 7.319809,0 h 2.863625 c 0.464908,0 0.852329,0.03514 1.162266,0.10543 0.313237,0.07028 0.563825,0.171498 0.751766,0.303634 0.187941,0.129326 0.321477,0.286767 0.40061,0.472322 0.07913,0.185554 0.118702,0.395007 0.118698,0.628356 4e-6,0.21648 -0.03791,0.41047 -0.113753,0.581968 -0.07254,0.168685 -0.171455,0.317693 -0.296748,0.447019 -0.125292,0.129326 -0.270372,0.237566 -0.435233,0.32472 -0.164857,0.08434 -0.336313,0.149008 -0.514363,0.19399 l 1.795331,2.260395 0.717142,0.113866 v 0.223507 h -1.587606 l -1.864573,-2.479688 h -1.191941 v 2.142315 l 1.004,0.113866 v 0.223507 h -2.744927 v -0.223507 l 0.786385,-0.113866 V 67.28699 l -0.850679,-0.109646 z m 21.326354,0 h 2.650958 v 0.22351 l -0.850683,0.109646 v 3.394812 c 0,0.230536 0.03133,0.441396 0.09397,0.632573 0.06594,0.188367 0.168157,0.350022 0.306642,0.484971 0.141778,0.134949 0.323127,0.238973 0.544038,0.31207 0.224209,0.0731 0.494582,0.109647 0.811114,0.109647 0.346207,0 0.642955,-0.03655 0.890248,-0.109647 0.247289,-0.0731 0.450069,-0.175714 0.608335,-0.30785 0.161562,-0.132139 0.278614,-0.29239 0.351152,-0.480758 0.07584,-0.188364 0.113752,-0.396411 0.113752,-0.62414 V 67.28699 l -0.890244,-0.109646 v -0.22351 h 2.260236 v 0.22351 l -0.85068,0.109646 v 3.377943 c 0,0.258651 -0.03792,0.510277 -0.113752,0.754872 -0.07584,0.241782 -0.209375,0.456859 -0.400611,0.645223 -0.191239,0.188367 -0.453368,0.340186 -0.786385,0.455455 -0.329722,0.115261 -0.748467,0.172902 -1.256239,0.172902 -0.880353,0 -1.539797,-0.168685 -1.978326,-0.506058 -0.43523,-0.340185 -0.652848,-0.82094 -0.652848,-1.442267 v -3.45807 l -0.850679,-0.109646 z m 7.398941,0 h 4.975488 v 1.353707 H 50.755243 L 50.596977,67.39242 c -0.105512,-0.01126 -0.234103,-0.0211 -0.385775,-0.02952 -0.148372,-0.0084 -0.300043,-0.01407 -0.455014,-0.01687 -0.154967,-0.0056 -0.301693,-0.0084 -0.440178,-0.0084 -0.138482,-0.0028 -0.24564,-0.0042 -0.321478,-0.0042 h -1.083133 v 2.209789 h 1.790386 l 0.153321,-0.674745 h 0.316532 v 1.737468 h -0.316532 l -0.153321,-0.683181 h -1.790386 v 2.306786 h 1.305697 c 0.204426,0 0.397311,-0.0015 0.578661,-0.0042 0.181345,-0.0056 0.344557,-0.01123 0.489633,-0.01687 0.145077,-0.0056 0.268723,-0.01265 0.370936,-0.0211 0.105512,-0.0085 0.182996,-0.01687 0.232454,-0.02529 l 0.281913,-1.045856 h 0.326422 l -0.09397,1.492872 h -5.296969 v -0.223506 l 0.850679,-0.113866 v -4.984678 l -0.850679,-0.109647 z m 6.192158,0 h 2.863629 c 0.464908,0 0.852329,0.03514 1.162266,0.10543 0.313237,0.07028 0.563822,0.171498 0.751766,0.303634 0.18794,0.129326 0.321477,0.286767 0.40061,0.472322 0.07913,0.185554 0.118698,0.395007 0.118698,0.628356 0,0.21648 -0.03792,0.41047 -0.113753,0.581968 -0.07254,0.168685 -0.171455,0.317693 -0.296748,0.447019 -0.125296,0.129326 -0.270373,0.237566 -0.435233,0.32472 -0.164861,0.08434 -0.336317,0.149008 -0.514363,0.19399 l 1.79533,2.260395 0.717143,0.113866 v 0.223507 h -1.587606 l -1.864574,-2.479688 h -1.19194 v 2.142315 l 1.004,0.113866 v 0.223507 h -2.744927 v -0.223507 l 0.786385,-0.113866 V 67.28699 l -0.850683,-0.109646 z m 6.840065,0 h 2.650955 v 0.22351 l -0.850679,0.109646 v 4.984678 l 0.850679,0.113866 v 0.223507 H 59.138401 V 72.385534 L 59.98908,72.271668 V 67.28699 l -0.850679,-0.109646 z m -31.628488,0.274115 c -0.428639,0 -0.784736,0.05904 -1.068298,0.177121 -0.283559,0.11808 -0.509425,0.288174 -0.677575,0.510277 -0.16816,0.21929 -0.286857,0.486378 -0.3561,0.801258 -0.06924,0.314883 -0.103862,0.667718 -0.103862,1.058506 0,0.393604 0.03462,0.749249 0.103862,1.066943 0.06924,0.317693 0.18794,0.588994 0.3561,0.81391 0.16815,0.224916 0.394016,0.399224 0.677575,0.522927 0.283562,0.120893 0.639659,0.181338 1.068298,0.181338 0.428635,0 0.784735,-0.06044 1.068294,-0.181338 0.283562,-0.123703 0.509421,-0.298011 0.677578,-0.522927 0.171455,-0.224916 0.291803,-0.496217 0.361045,-0.81391 0.06924,-0.317694 0.103863,-0.673339 0.103863,-1.066943 0,-0.390788 -0.03462,-0.743623 -0.103863,-1.058506 -0.06924,-0.31488 -0.18959,-0.581968 -0.361045,-0.801258 -0.168157,-0.222103 -0.394016,-0.392197 -0.677578,-0.510277 -0.283559,-0.11808 -0.639659,-0.177121 -1.068294,-0.177121 z m -15.643614,0.10543 v 4.879251 c 0.09891,0.0056 0.206075,0.0098 0.321477,0.01265 0.115403,0.0028 0.2341,0.007 0.356097,0.01265 l 0.365991,0.0084 h 0.365991 c 0.418745,0 0.776495,-0.05201 1.073243,-0.156035 0.300043,-0.106833 0.545687,-0.264275 0.736927,-0.472322 0.191236,-0.210856 0.331367,-0.472321 0.420394,-0.784391 0.09232,-0.312061 0.138482,-0.676149 0.138482,-1.092242 0,-0.416094 -0.06759,-0.774552 -0.20278,-1.075376 -0.135186,-0.303634 -0.329721,-0.553852 -0.583605,-0.750653 -0.250589,-0.1968 -0.553932,-0.342995 -0.910028,-0.438586 -0.356101,-0.09559 -0.753416,-0.143382 -1.191945,-0.143382 z m 7.319805,0 v 2.416429 h 0.875409 c 0.303342,0 0.55888,-0.02249 0.766601,-0.06747 0.207724,-0.04779 0.375884,-0.12089 0.504476,-0.21929 0.128581,-0.101213 0.22091,-0.229133 0.276964,-0.383764 0.05605,-0.154622 0.08408,-0.340183 0.08408,-0.556662 0,-0.224917 -0.03133,-0.413284 -0.09397,-0.565099 -0.06265,-0.151819 -0.161566,-0.274118 -0.296752,-0.366895 -0.131887,-0.09278 -0.303343,-0.158851 -0.514363,-0.198204 -0.207725,-0.03936 -0.459963,-0.05904 -0.756711,-0.05904 z m 34.917457,0 v 2.416429 h 0.875408 c 0.303343,0 0.558877,-0.02249 0.766601,-0.06747 0.207725,-0.04779 0.375881,-0.12089 0.504473,-0.21929 0.128592,-0.101213 0.220914,-0.229133 0.276968,-0.383764 0.05605,-0.154622 0.08408,-0.340183 0.08408,-0.556662 0,-0.224917 -0.03133,-0.413284 -0.09397,-0.565099 -0.06264,-0.151819 -0.161562,-0.274118 -0.296748,-0.366895 -0.131888,-0.09278 -0.303343,-0.158851 -0.514363,-0.198204 -0.207725,-0.03936 -0.459963,-0.05904 -0.756711,-0.05904 z m 11.395158,0.181337 -1.137537,2.745369 h 2.309694 z"
     id="rect4652"
     inkscape:connector-curvature="0" />
</svg>
