<?xml version="1.0" encoding="UTF-8" standalone="no"?>
<svg
   xmlns:dc="http://purl.org/dc/elements/1.1/"
   xmlns:cc="http://creativecommons.org/ns#"
   xmlns:rdf="http://www.w3.org/1999/02/22-rdf-syntax-ns#"
   xmlns:svg="http://www.w3.org/2000/svg"
   xmlns="http://www.w3.org/2000/svg"
   id="svg8"
   version="1.1"
   viewBox="0 0 79.374999 79.374999"
   height="300"
   width="300">
  <defs
     id="defs2" />
  <metadata
     id="metadata5">
    <rdf:RDF>
      <cc:Work
         rdf:about="">
        <dc:format>image/svg+xml</dc:format>
        <dc:type
           rdf:resource="http://purl.org/dc/dcmitype/StillImage" />
        <dc:title></dc:title>
      </cc:Work>
    </rdf:RDF>
  </metadata>
  <g
     transform="translate(0,-217.62501)"
     id="layer1">
    <g
       transform="matrix(1.3672481,0,0,1.1658139,-193.58711,126.14869)"
       id="g4974">
      <rect
         style="opacity:1;fill:none;fill-opacity:1;stroke:#017137;stroke-width:2.5;stroke-miterlimit:4;stroke-dasharray:none;stroke-opacity:1"
         id="rect4650"
         width="55.5625"
         height="65.578873"
         x="142.86472"
         y="79.744583" />
      <path
         style="opacity:1;fill:#017137;fill-opacity:1;stroke:none;stroke-width:0.99999994;stroke-opacity:1"
         d="M 555.31836,313.18164 V 537.46875 H 734.60352 V 313.18164 Z m 124.62305,5.23828 c 0.6289,0 1.22135,0.0228 1.77734,0.0684 0.55599,0.0365 1.08464,0.0866 1.58594,0.15039 0.51041,0.0638 0.99349,0.13672 1.44922,0.21875 0.45573,0.082 0.89778,0.16862 1.32617,0.25977 l 0.082,4.00586 h -0.90234 l -0.41016,-2.37891 c -0.63802,-0.39193 -1.38086,-0.69271 -2.22852,-0.90234 -0.83854,-0.21875 -1.69531,-0.32813 -2.57031,-0.32813 -1.0664,0 -2.01888,0.14584 -2.85742,0.4375 -0.82943,0.29167 -1.53125,0.77018 -2.10547,1.43555 -0.57422,0.65625 -1.01628,1.52669 -1.32617,2.61133 -0.30078,1.07552 -0.45117,2.40169 -0.45117,3.97851 0,1.38542 0.15039,2.5931 0.45117,3.62305 0.30078,1.02083 0.73372,1.87305 1.29883,2.55664 0.5651,0.67448 1.25325,1.18034 2.06445,1.51758 0.82031,0.33724 1.75,0.50586 2.78906,0.50586 0.56511,0 1.10287,-0.0365 1.61328,-0.10938 0.51953,-0.0729 0.99805,-0.17317 1.43555,-0.30078 0.44662,-0.1276 0.8431,-0.27344 1.18945,-0.4375 0.35547,-0.17318 0.6517,-0.35091 0.88868,-0.5332 l 0.50586,-2.73438 h 0.88867 l -0.082,4.30664 c -0.38282,0.10938 -0.82032,0.21875 -1.3125,0.32813 -0.49219,0.10026 -1.01628,0.19141 -1.57227,0.27344 -0.55599,0.082 -1.13932,0.14583 -1.75,0.1914 -0.61068,0.0456 -1.22135,0.0684 -1.83203,0.0684 -1.49479,0 -2.83008,-0.20963 -4.00586,-0.6289 -1.16667,-0.41928 -2.1556,-1.0254 -2.9668,-1.81836 -0.80208,-0.79297 -1.41276,-1.75912 -1.83203,-2.89844 -0.41927,-1.14844 -0.62891,-2.44271 -0.62891,-3.88281 0,-1.64063 0.20964,-3.0625 0.62891,-4.26563 0.42839,-1.20312 1.04362,-2.19661 1.8457,-2.98047 0.8112,-0.79297 1.80469,-1.38086 2.98047,-1.76367 1.17578,-0.38281 2.52019,-0.57422 4.03321,-0.57422 z m -86.0918,0.0547 h 2.59766 l 6.49414,17.39062 2.32421,0.36915 v 0.7246 h -7.75195 v -0.7246 l 2.46094,-0.36915 -1.81836,-5.29101 h -7.21875 l -1.8457,5.29101 2.46093,0.36915 v 0.7246 h -6.02929 v -0.7246 l 2.07812,-0.36915 z m 63.82031,0 h 2.59766 l 6.49414,17.39062 2.32422,0.36915 v 0.7246 h -7.75196 v -0.7246 l 2.46094,-0.36915 -1.81836,-5.29101 h -7.21875 l -1.8457,5.29101 2.46094,0.36915 v 0.7246 h -6.0293 v -0.7246 l 2.07813,-0.36915 z m 48.28906,0 h 2.59766 l 6.49414,17.39062 2.32422,0.36915 v 0.7246 h -7.75195 v -0.7246 l 2.46093,-0.36915 -1.81836,-5.29101 h -7.21874 l -1.84571,5.29101 2.46094,0.36915 v 0.7246 h -6.0293 v -0.7246 l 2.07813,-0.36915 z M 572.54883,318.625 h 13.7539 v 4.38867 h -0.90234 l -0.4375,-2.96679 c -0.29167,-0.0365 -0.64713,-0.0684 -1.06641,-0.0957 -0.41015,-0.0273 -0.82942,-0.0456 -1.25781,-0.0547 -0.42838,-0.0182 -0.83398,-0.0273 -1.21679,-0.0273 -0.38282,-0.009 -0.67904,-0.0137 -0.88868,-0.0137 h -2.99414 v 7.64258 h 5.40039 l 0.42383,-2.1875 h 0.83399 v 5.63281 h -0.83399 l -0.42383,-2.21484 h -5.40039 v 7.13671 l 3.04883,0.36915 v 0.7246 h -7.86133 v -0.7246 l 2.17383,-0.36915 v -16.16015 l -2.35156,-0.35547 z m 33.74219,0 h 7.91601 c 1.28516,0 2.35612,0.11393 3.21289,0.3418 0.86589,0.22786 1.5586,0.55599 2.07813,0.98437 0.51953,0.41927 0.88867,0.92969 1.10742,1.53125 0.21875,0.60156 0.32812,1.2806 0.32812,2.03711 0,0.70182 -0.10481,1.33073 -0.31445,1.88672 -0.20052,0.54687 -0.47396,1.02995 -0.82031,1.44922 -0.34636,0.41927 -0.7474,0.77018 -1.20313,1.05273 -0.45573,0.27344 -0.92968,0.48308 -1.42187,0.62891 l 4.96289,7.32812 1.98242,0.36915 v 0.7246 h -4.38867 l -5.1543,-8.03906 h -3.29492 v 6.94531 l 2.77539,0.36915 v 0.7246 h -7.58789 v -0.7246 l 2.17383,-0.36915 v -16.16015 l -2.35156,-0.35547 z m 18.70312,0 h 5.55078 l 5.96094,13.94531 6.50781,-13.94531 h 5.25 v 0.72461 l -2.35156,0.35547 v 16.16015 l 2.35156,0.36915 v 0.7246 h -7.4375 v -0.7246 l 2.46094,-0.36915 v -14.66992 l -7.31445,15.76367 h -0.47852 l -6.71289,-15.76367 v 14.66992 l 2.46094,0.36915 v 0.7246 h -6.24805 v -0.7246 l 2.35156,-0.36915 v -16.16015 l -2.35156,-0.35547 z m 64.02539,0 h 7.32813 v 0.72461 l -2.35157,0.35547 v 16.16015 l 2.35157,0.36915 v 0.7246 h -7.32813 v -0.7246 l 2.35156,-0.36915 v -16.16015 l -2.35156,-0.35547 z m -77.73828,1.23047 v 7.83398 h 2.41992 c 0.83854,0 1.54492,-0.0729 2.11914,-0.21875 0.57422,-0.15494 1.03907,-0.39192 1.39453,-0.71093 0.35547,-0.32813 0.61068,-0.74284 0.76563,-1.24415 0.15495,-0.5013 0.23242,-1.10286 0.23242,-1.80468 0,-0.72917 -0.0866,-1.33985 -0.25977,-1.83203 -0.17317,-0.49219 -0.44661,-0.88868 -0.82031,-1.18946 -0.36458,-0.30078 -0.83854,-0.51497 -1.42187,-0.64257 -0.57422,-0.12761 -1.27149,-0.19141 -2.0918,-0.19141 z m -16.78906,0.58789 -3.14453,8.90039 h 6.38476 z m 63.82031,0 -3.14453,8.90039 h 6.38476 z m 48.28906,0 -3.14453,8.90039 h 6.38477 z m -78.74218,27.77148 c 0.45542,-0.021 0.91995,-0.0202 1.39257,0.002 1.08028,0.0505 2.20388,0.21459 3.36914,0.49414 2.78034,0.66699 5.27105,1.94586 5.83203,2.99414 0.53851,1.00623 0.97852,5.00837 0.97852,8.89453 0,5.51238 -0.31953,7.06641 -1.45312,7.06641 -1.27556,0 -3.5259,-5.44811 -3.54102,-8.57618 -0.0101,-1.95637 -4.59197,-5.42382 -7.16602,-5.42382 -5.31458,0 -8.28844,7.59593 -5.54492,14.1621 1.08601,2.59919 3.03198,4.45087 7.16992,6.81836 11.4505,6.55129 13.99149,10.74673 13.93555,23.01954 -0.0439,9.64671 -2.03382,14.82945 -7.43359,19.37304 -2.51392,2.11537 -4.12536,2.61668 -8.29297,2.57813 -2.84531,-0.0264 -6.74884,-0.81631 -8.67383,-1.75586 l -3.5,-1.70899 -0.29102,-8.32422 c -0.25321,-7.22625 -0.0796,-8.28176 1.32227,-7.99414 0.94065,0.19302 2.38696,2.61931 3.46484,5.81055 2.0702,6.12903 4.92185,9.02149 8.89258,9.02149 8.48644,0 12.12215,-12.99891 5.34961,-19.12696 -1.50565,-1.3624 -5.34164,-4.15659 -8.52344,-6.20898 -6.63469,-4.27967 -9.1777,-7.90414 -10.8789,-15.50586 -0.92447,-4.1314 -0.93368,-6.66279 -0.0391,-10.92774 1.93492,-9.22484 6.79947,-14.36644 13.63086,-14.68164 z m 56.6289,22.63086 c 0.6675,-0.0192 0.94336,1.435 0.94336,4.42383 v 4.60352 l 3.53516,-3.10352 c 6.08874,-5.34599 12.43483,-3.61083 15.39843,4.21094 0.58708,1.54953 1.06641,9.72497 1.06641,18.18359 0,14.48927 0.11432,15.40347 2,16.00196 1.09999,0.34911 2,1.27845 2,2.0664 0,1.12418 -1.72277,1.4336 -8,1.4336 -5.77682,0 -8,-0.35175 -8,-1.26368 0,-0.6946 1.01251,-1.70707 2.25,-2.25 2.06918,-0.90776 2.27336,-1.73768 2.53906,-10.33203 0.3419,-11.06343 -1.1372,-23.12524 -2.97851,-24.29297 -2.31954,-1.47099 -3.94293,-0.92953 -6.98242,2.32422 l -2.97657,3.1836 0.32422,13.21289 c 0.26672,10.87608 0.63373,13.5555 2.07422,15.14453 0.9625,1.06178 1.75,2.57921 1.75,3.37109 0,1.12796 -1.6416,1.43504 -7.58789,1.41992 -4.17377,-0.0102 -7.84727,-0.43004 -8.16211,-0.93359 -0.31495,-0.50351 0.62416,-1.86995 2.08789,-3.03711 2.64998,-2.11238 2.66211,-2.18399 2.66211,-15.83398 0,-12.37909 -0.19448,-13.90734 -2,-15.71289 -2.795,-2.795 -2.49724,-4.55111 1.01953,-6.00782 1.66103,-0.68802 3.78428,-2.54434 4.7168,-4.12304 1.04537,-1.76964 1.80114,-2.67452 2.32031,-2.68946 z m -22.33398,2.91407 c 2.07053,-0.0107 3.02314,0.56025 4.70117,2.23828 2.54181,2.54192 2.57668,2.78011 2.5918,17.87304 0.0154,15.33729 0.76236,19.7985 2.72851,16.28516 0.67627,-1.20839 1.19897,-1.39051 1.69141,-0.59375 1.10604,1.78961 -0.33239,6.69942 -2.55078,8.70703 -2.37139,2.14609 -4.67181,1.16133 -6.63868,-2.8418 l -1.25585,-2.55273 -3.39454,3.39453 c -6.48249,6.4825 -13.5957,3.6217 -13.5957,-5.46875 0,-5.95385 1.91138,-8.64072 10.09375,-14.19726 l 5.90625,-4.01172 v -5.5293 c 0,-3.04067 -0.46581,-6.39907 -1.03516,-7.46289 -2.40461,-4.49303 -7.96484,-0.49923 -7.96484,5.7207 0,2.44248 -0.73441,3.73294 -3.07617,5.40039 -4.12116,2.93447 -5.44049,1.57699 -3.92774,-4.04101 0.63406,-2.35465 2.79425,-6.01072 4.85938,-8.22461 3.02986,-3.2482 4.57734,-4.08389 8.35547,-4.50977 1.00679,-0.11347 1.82154,-0.18198 2.51172,-0.18554 z m 0.22656,22.40625 -3.97461,4.21093 c -3.92009,4.1531 -4.92473,7.64812 -3.36719,11.70703 h 0.002 c 0.87779,2.28745 4.02716,1.94174 5.83593,-0.64062 1.03125,-1.47232 1.54637,-4.42592 1.53125,-8.75 z m -90.94922,2.5 H 583 c 11.42615,0 11.56559,0.0279 11.25,2.25 -0.22881,1.61098 -1.09934,2.34001 -3.06836,2.5664 l -2.75,0.31641 -0.0312,32.18359 c -0.017,17.70097 -0.44475,35.3698 -0.95117,39.26563 -1.26807,9.75511 -4.61707,18.24954 -8.74024,22.16797 -6.47161,6.15016 -12.27734,3.07649 -12.27734,-6.5 0,-7.16739 4.65303,-8.56337 7.5,-2.25 2.22164,4.92669 4.05653,5.12225 4.80469,0.51171 1.05456,-6.49848 -0.49497,-83.95194 -1.69531,-84.74609 -0.61078,-0.40418 -2.12189,-0.74244 -3.35938,-0.75 -1.72925,-0.0118 -2.25,-0.59423 -2.25,-2.51562 z m 71.88672,23.1582 c 0.73469,0.0834 1.11862,1.78719 1.125,5.0918 l 0.008,5.25 2.54688,-4.25 c 1.40099,-2.33753 3.12735,-4.25 3.83593,-4.25 2.4262,0 4.59766,3.60374 4.59766,7.6289 0,5.9328 -3.07491,8.15361 -6.51953,4.70899 -2.81046,-2.81046 -3.44973,0.0832 -3.46484,15.71093 -0.0158,15.03141 0.45675,16.95118 4.18359,16.95118 1.13333,0 1.80078,0.74077 1.80078,2 h 0.002 c 0,1.85185 -0.66667,2 -9,2 -8.22871,0 -9,-0.16659 -9,-1.9336 0,-1.06291 0.90001,-2.21718 2,-2.5664 1.88398,-0.59793 2,-1.51401 2,-15.75391 0,-14.24549 -0.12883,-15.25367 -2.22265,-17.48242 l -2.22071,-2.36524 3.24024,-2.53711 c 1.78303,-1.39544 3.9198,-3.8476 4.74805,-5.44922 0.98404,-1.90293 1.76841,-2.81876 2.33984,-2.7539 z m 66.61328,1.84766 c 5.79201,0 11.56433,7.52865 12.92383,16.85546 l 0.63476,4.36328 -7.77929,-0.27539 c -12.49493,-0.44046 -12.281,-0.50561 -12.27344,3.80079 0.009,5.83623 1.91644,11.32464 5.01172,14.41992 3.34084,3.3408 5.78421,3.56086 9.25586,0.83008 3.09335,-2.43315 4.72656,-2.55359 4.72656,-0.34571 0,2.67092 -4.98661,8.44152 -8.59961,9.95117 -1.83485,0.76664 -3.68899,1.33265 -4.11914,1.25782 -4.28814,-0.74665 -5.58812,-1.44892 -8.20703,-4.43164 -6.96661,-7.93455 -8.24503,-26.85182 -2.52539,-37.34961 2.99286,-5.49306 7.31561,-9.07618 10.95117,-9.07617 z m -95.5293,0.0762 c 4.10341,0.15107 8.2763,2.95413 11.5293,8.91797 2.82202,5.17375 2.99949,6.15252 2.98438,16.5 -0.0137,10.03872 -0.25479,11.45763 -2.75782,16.23242 -1.50844,2.87762 -3.75111,5.86138 -4.98437,6.63086 -11.98488,7.47768 -23.69357,-5.65932 -22.53125,-25.2793 0.83029,-14.01588 7.66901,-22.6403 14.93945,-22.99609 0.27264,-0.0134 0.54675,-0.0159 0.82031,-0.006 z m 59.94532,0.91797 c 3.00578,0 4.84535,0.72951 7.32226,2.90429 3.13622,2.75365 3.47861,2.83397 6.57227,1.53321 3.14642,-1.32299 3.29945,-1.27873 4.26758,1.26757 1.11178,2.9243 0.3206,8.29493 -1.22266,8.29493 -0.54248,0 -1.78886,-0.43022 -2.76953,-0.95508 -1.62505,-0.86967 -1.74204,-0.51393 -1.30664,4.01758 0.59229,6.16391 -1.64938,12.48089 -5.86328,16.51757 -2.61513,2.50511 -3.83235,2.91993 -8.5625,2.91993 -5.78268,0 -8.35352,1.73235 -8.35352,5.63086 0,2.58613 1.4425,3.09285 9.55469,3.3457 11.21299,0.34972 15.73047,4.66402 15.73047,15.02344 0,8.09125 -3.65703,13.44309 -10.96875,16.05078 -10.64678,3.7971 -21.31641,-1.56344 -21.31641,-10.70899 0,-3.3733 0.5991,-4.68361 3.2832,-7.1914 l 3.28125,-3.06836 -2.84375,-2.54102 c -1.93666,-1.73057 -3.00403,-3.81756 -3.3457,-6.54101 -0.45169,-3.60269 -0.1019,-4.43009 3.52148,-8.33204 l 4.02344,-4.33398 -2.54883,-3.84961 c -3.91952,-5.92282 -4.34225,-14.1865 -1.08789,-21.29492 2.89455,-6.32255 6.3379,-8.68945 12.63282,-8.68945 z m -60.34571,3.36132 c -0.7932,-0.0535 -1.60742,0.12313 -2.41015,0.55274 -3.40339,1.82143 -4.39135,7.43991 -4.00977,22.78906 0.30199,12.14838 0.61148,14.37979 2.25391,16.19336 1.06008,1.17044 3.13083,2.10352 4.66797,2.10352 2.3625,0 3.01703,-0.66874 4.52343,-4.61329 2.10856,-5.52113 2.48308,-24.53508 0.60938,-30.96289 -1.07002,-3.67089 -3.25515,-5.90187 -5.63477,-6.0625 z m 95.97852,0.0723 c -1.75953,-0.16009 -3.65743,1.58543 -5.20313,5.2832 -2.06086,4.93021 -1.72061,6.10706 1.9043,6.57617 2.98322,0.38608 7.83091,-0.0419 8.54297,-0.7539 0.16339,-0.16339 -0.2304,-2.39126 -0.875,-4.95117 -0.98918,-3.92841 -2.60962,-5.99421 -4.36914,-6.1543 z m -36.36328,0.76758 c -1.13894,-0.0438 -2.12358,0.3072 -2.84571,1.02929 -3.88391,3.88396 -3.98053,20.41343 -0.14843,25.28516 2.28287,2.90222 3.1052,3.04519 5.23633,0.91406 2.18043,-2.18044 3.06029,-5.91348 3.05273,-12.92968 -0.0116,-9.51546 -1.13489,-13.37457 -4.10938,-14.1211 -0.41035,-0.103 -0.8059,-0.16313 -1.18554,-0.17773 z m 0.91015,53.81445 c -3.62725,0.008 -7.09013,0.34593 -7.69531,0.75 -1.59613,1.06579 -3.40039,4.7964 -3.40039,7.0332 0,2.68551 3.59109,6.98071 6.26953,7.49805 3.91087,0.75534 4.54475,0.72462 7.41602,-0.36328 4.43913,-1.68197 7.31445,-4.93721 7.31445,-8.2793 0,-5.06026 -2.38088,-6.65757 -9.9043,-6.63867 z m -63.34179,30.73828 c 1.39453,0 2.64323,0.18229 3.74609,0.54688 1.11198,0.36458 2.05534,0.92968 2.83008,1.69531 0.77474,0.76562 1.36719,1.73633 1.77734,2.91211 0.41016,1.17578 0.61524,2.57487 0.61524,4.19726 0,1.6224 -0.20508,3.0306 -0.61524,4.22461 -0.41015,1.1849 -1.0026,2.16472 -1.77734,2.93946 -0.77474,0.77474 -1.7181,1.35351 -2.83008,1.73633 -1.10286,0.37367 -2.35156,0.56054 -3.74609,0.56054 -1.39453,0 -2.64323,-0.18687 -3.7461,-0.56054 -1.10286,-0.38282 -2.04166,-0.96159 -2.8164,-1.73633 -0.77474,-0.77474 -1.36719,-1.75456 -1.77735,-2.93946 -0.41015,-1.19401 -0.61523,-2.60221 -0.61523,-4.22461 0,-1.62239 0.19596,-3.02148 0.58789,-4.19726 0.40104,-1.17578 0.97982,-2.14649 1.73633,-2.91211 0.75651,-0.76563 1.69075,-1.33073 2.80273,-1.69531 1.11198,-0.36459 2.38802,-0.54688 3.82813,-0.54688 z m 20.76757,0 c 1.1849,0 2.31055,0.0729 3.37696,0.21875 1.07552,0.14584 2.09635,0.34636 3.0625,0.60156 v 3.9375 h -0.91602 l -0.36914,-2.26953 c -0.6289,-0.44661 -1.38541,-0.78841 -2.26953,-1.02539 -0.875,-0.24609 -1.80013,-0.36914 -2.77539,-0.36914 -1.06641,0 -2.01888,0.15039 -2.85742,0.45117 -0.82943,0.29167 -1.53125,0.77019 -2.10547,1.43555 -0.57422,0.66537 -1.01628,1.54037 -1.32617,2.625 -0.30078,1.07552 -0.45117,2.39258 -0.45117,3.95117 0,1.57683 0.17773,2.89388 0.5332,3.95117 0.35547,1.04818 0.83398,1.88672 1.43555,2.51563 0.61067,0.62891 1.3125,1.07552 2.10546,1.33984 0.80209,0.26433 1.64519,0.39649 2.5293,0.39649 0.44662,0 0.88867,-0.0274 1.32617,-0.082 0.44662,-0.0638 0.86133,-0.14128 1.24414,-0.23243 0.39193,-0.0911 0.73829,-0.1914 1.03907,-0.30078 0.30078,-0.10937 0.53776,-0.21419 0.71093,-0.31445 v -5.20898 l -2.35156,-0.35547 v -0.73828 h 6.76758 v 0.73828 l -1.79102,0.35547 v 5.96093 c -1.05729,0.34636 -2.1556,0.63802 -3.29492,0.875 -1.13932,0.23698 -2.36523,0.35547 -3.67773,0.35547 -1.44922,0 -2.75716,-0.19596 -3.92383,-0.58789 -1.15755,-0.40104 -2.14649,-0.98893 -2.9668,-1.76367 -0.82031,-0.78385 -1.44922,-1.75 -1.88672,-2.89844 -0.4375,-1.14844 -0.65625,-2.47461 -0.65625,-3.97851 0,-3.20834 0.80209,-5.60547 2.40625,-7.19141 1.61328,-1.59505 3.97398,-2.39258 7.08203,-2.39258 z m 83.60352,0.0547 h 2.59766 l 6.49414,17.39062 2.32422,0.36915 v 0.7246 h -7.75196 v -0.7246 l 2.46094,-0.36915 -1.81836,-5.29101 h -7.21875 l -1.8457,5.29101 2.46094,0.36915 v 0.7246 h -6.0293 v -0.7246 l 2.07812,-0.36915 z M 562.95117,513.625 h 8.32617 c 1.52214,0 2.89388,0.15951 4.11524,0.47852 1.23047,0.31901 2.27864,0.83854 3.14453,1.55859 0.86588,0.72005 1.53125,1.6543 1.99609,2.80273 0.47396,1.14844 0.71094,2.55664 0.71094,4.22461 0,1.49479 -0.19141,2.82097 -0.57422,3.97852 -0.38281,1.15755 -0.96159,2.13281 -1.73633,2.92578 -0.77474,0.79297 -1.75455,1.39453 -2.93945,1.80469 -1.17578,0.41015 -2.5612,0.61523 -4.15625,0.61523 -0.51953,0 -1.08919,-0.005 -1.70898,-0.0137 -0.61068,0 -1.21224,-0.005 -1.80469,-0.0137 -0.59245,-0.009 -1.15755,-0.0182 -1.69531,-0.0273 h -1.32618 -2.35156 v -0.7246 l 2.35156,-0.36915 v -16.16015 l -2.35156,-0.35547 z m 20.23438,0 h 7.91601 c 1.28516,0 2.35612,0.11393 3.21289,0.3418 0.86589,0.22786 1.5586,0.55599 2.07813,0.98437 0.51953,0.41927 0.88867,0.92969 1.10742,1.53125 0.21875,0.60156 0.32813,1.2806 0.32812,2.03711 10e-6,0.70182 -0.10481,1.33073 -0.31445,1.88672 -0.20052,0.54687 -0.47396,1.02995 -0.82031,1.44922 -0.34635,0.41927 -0.7474,0.77018 -1.20313,1.05273 -0.45572,0.27344 -0.92968,0.48308 -1.42187,0.62891 l 4.96289,7.32812 1.98242,0.36915 v 0.7246 H 596.625 l -5.1543,-8.03906 h -3.29492 v 6.94531 l 2.77539,0.36915 v 0.7246 h -7.58789 v -0.7246 l 2.17383,-0.36915 v -16.16015 l -2.35156,-0.35547 z m 58.95312,0 h 7.32813 v 0.72461 l -2.35157,0.35547 v 11.00586 c 0,0.74739 0.0866,1.43099 0.25977,2.05078 0.18229,0.61068 0.46484,1.13476 0.84766,1.57226 0.39192,0.4375 0.89323,0.77474 1.5039,1.01172 0.61979,0.23698 1.36719,0.35547 2.24219,0.35547 0.95703,0 1.77734,-0.11849 2.46094,-0.35547 0.68359,-0.23698 1.24414,-0.56966 1.68164,-0.99804 0.44661,-0.42839 0.77018,-0.94792 0.9707,-1.5586 0.20964,-0.61067 0.31445,-1.28515 0.31445,-2.02344 v -11.06054 l -2.46093,-0.35547 V 513.625 h 6.24804 v 0.72461 l -2.35156,0.35547 v 10.95117 c 0,0.83854 -0.10482,1.6543 -0.31445,2.44727 -0.20964,0.78385 -0.57878,1.48112 -1.10742,2.09179 -0.52865,0.61068 -1.25326,1.10287 -2.17383,1.47657 -0.91146,0.37367 -2.06901,0.56054 -3.47266,0.56054 -2.43359,0 -4.25651,-0.54687 -5.46875,-1.64062 -1.20312,-1.10287 -1.80469,-2.66146 -1.80469,-4.67578 v -11.21094 l -2.35156,-0.35547 z m 20.45313,0 h 13.7539 v 4.38867 h -0.90234 l -0.4375,-2.96679 c -0.29167,-0.0365 -0.64714,-0.0684 -1.06641,-0.0957 -0.41015,-0.0273 -0.82942,-0.0456 -1.25781,-0.0547 -0.42838,-0.0182 -0.83398,-0.0273 -1.2168,-0.0273 -0.38281,-0.009 -0.67903,-0.0137 -0.88867,-0.0137 h -2.99414 v 7.16406 h 4.94922 l 0.42383,-2.1875 h 0.875 v 5.63281 h -0.875 L 672.53125,523.25 h -4.94922 v 7.47852 h 3.60938 c 0.5651,0 1.0983,-0.005 1.59961,-0.0137 0.5013,-0.0182 0.95247,-0.0364 1.35351,-0.0547 0.40104,-0.0182 0.74284,-0.041 1.02539,-0.0684 0.29167,-0.0274 0.50586,-0.0547 0.64258,-0.082 l 0.7793,-3.39063 h 0.90234 l -0.25976,4.83984 H 662.5918 v -0.7246 l 2.35156,-0.36915 v -16.16015 l -2.35156,-0.35547 z m 17.11718,0 h 7.91602 c 1.28516,0 2.35612,0.11393 3.21289,0.3418 0.86589,0.22786 1.55859,0.55599 2.07813,0.98437 0.51953,0.41927 0.88867,0.92969 1.10742,1.53125 0.21875,0.60156 0.32812,1.2806 0.32812,2.03711 0,0.70182 -0.10482,1.33073 -0.31445,1.88672 -0.20052,0.54687 -0.47396,1.02995 -0.82031,1.44922 -0.34636,0.41927 -0.7474,0.77018 -1.20313,1.05273 -0.45573,0.27344 -0.92969,0.48308 -1.42187,0.62891 l 4.96289,7.32812 1.98242,0.36915 v 0.7246 h -4.38867 l -5.1543,-8.03906 h -3.29492 v 6.94531 l 2.77539,0.36915 v 0.7246 h -7.58789 v -0.7246 l 2.17383,-0.36915 v -16.16015 l -2.35157,-0.35547 z m 18.90821,0 h 7.32812 v 0.72461 l -2.35156,0.35547 v 16.16015 l 2.35156,0.36915 v 0.7246 h -7.32812 v -0.7246 l 2.35156,-0.36915 v -16.16015 l -2.35156,-0.35547 z m -87.43164,0.88867 c -1.1849,0 -2.16927,0.19141 -2.95313,0.57422 -0.78385,0.38281 -1.40822,0.93425 -1.87304,1.6543 -0.46485,0.71093 -0.79297,1.57682 -0.98438,2.59765 -0.19141,1.02084 -0.28711,2.16472 -0.28711,3.43164 0,1.27605 0.0957,2.42904 0.28711,3.45899 0.19141,1.02995 0.51953,1.9095 0.98438,2.63867 0.46482,0.72917 1.08919,1.29427 1.87304,1.69531 0.78386,0.39193 1.76823,0.58789 2.95313,0.58789 1.18489,0 2.16927,-0.19596 2.95312,-0.58789 0.78386,-0.40104 1.40821,-0.96614 1.87305,-1.69531 0.47396,-0.72917 0.80664,-1.60872 0.99805,-2.63867 0.1914,-1.02995 0.28711,-2.18294 0.28711,-3.45899 0,-1.26692 -0.0957,-2.4108 -0.28711,-3.43164 -0.19141,-1.02083 -0.52409,-1.88672 -0.99805,-2.59765 -0.46484,-0.72005 -1.08919,-1.27149 -1.87305,-1.6543 -0.78385,-0.38281 -1.76823,-0.57422 -2.95312,-0.57422 z m -43.24414,0.3418 v 15.81836 c 0.27343,0.0182 0.56966,0.0319 0.88867,0.041 0.31901,0.009 0.64713,0.0228 0.98437,0.041 l 1.01172,0.0273 h 1.01172 c 1.15755,0 2.14649,-0.16862 2.9668,-0.50586 0.82942,-0.34635 1.50846,-0.85677 2.03711,-1.53125 0.52864,-0.68359 0.91601,-1.53125 1.16211,-2.54297 0.2552,-1.01169 0.38281,-2.19205 0.38281,-3.54101 0,-1.34896 -0.18685,-2.51107 -0.56055,-3.48633 -0.3737,-0.98437 -0.91146,-1.79557 -1.61328,-2.43359 -0.69271,-0.63802 -1.53125,-1.11198 -2.51562,-1.42188 -0.98438,-0.30989 -2.08269,-0.46484 -3.29493,-0.46484 z m 20.23437,0 v 7.83398 h 2.41992 c 0.83854,0 1.54493,-0.0729 2.11914,-0.21875 0.57422,-0.15494 1.03907,-0.39192 1.39454,-0.71093 0.35544,-0.32813 0.61067,-0.74284 0.76562,-1.24415 0.15495,-0.50128 0.23242,-1.10286 0.23242,-1.80468 0,-0.72917 -0.0866,-1.33985 -0.25976,-1.83203 -0.17318,-0.49219 -0.44662,-0.88868 -0.82032,-1.18946 -0.36458,-0.30078 -0.83854,-0.51499 -1.42187,-0.64257 -0.57422,-0.12761 -1.27149,-0.19141 -2.0918,-0.19141 z m 96.52344,0 v 7.83398 h 2.41992 c 0.83854,0 1.54492,-0.0729 2.11914,-0.21875 0.57422,-0.15494 1.03906,-0.39192 1.39453,-0.71093 0.35547,-0.32813 0.61068,-0.74284 0.76563,-1.24415 0.15495,-0.50128 0.23242,-1.10286 0.23242,-1.80468 0,-0.72917 -0.0866,-1.33985 -0.25977,-1.83203 -0.17317,-0.49219 -0.44661,-0.88868 -0.82031,-1.18946 -0.36458,-0.30078 -0.83854,-0.51499 -1.42187,-0.64257 -0.57422,-0.12761 -1.27149,-0.19141 -2.0918,-0.19141 z m 31.5,0.58789 -3.14453,8.90039 h 6.38476 z"
         transform="scale(0.26458333)"
         id="rect4652" />
    </g>
  </g>
</svg>
