<?xml version="1.0" encoding="UTF-8" standalone="no"?>
<!-- Created with Inkscape (http://www.inkscape.org/) -->

<svg
   xmlns:dc="http://purl.org/dc/elements/1.1/"
   xmlns:cc="http://creativecommons.org/ns#"
   xmlns:rdf="http://www.w3.org/1999/02/22-rdf-syntax-ns#"
   xmlns:svg="http://www.w3.org/2000/svg"
   xmlns="http://www.w3.org/2000/svg"
   xmlns:sodipodi="http://sodipodi.sourceforge.net/DTD/sodipodi-0.dtd"
   xmlns:inkscape="http://www.inkscape.org/namespaces/inkscape"
   width="200"
   height="200"
   viewBox="0 0 52.916665 52.916666"
   version="1.1"
   id="svg8"
   inkscape:version="0.92.3 (2405546, 2018-03-11)"
   sodipodi:docname="logoc.svg"
   inkscape:export-filename="/home/andres/Documentos/programacion/cordova/bodegamovil/www/imagenes/plantilla/logoc.png"
   inkscape:export-xdpi="96"
   inkscape:export-ydpi="96">
  <defs
     id="defs2" />
  <sodipodi:namedview
     id="base"
     pagecolor="#ffffff"
     bordercolor="#666666"
     borderopacity="1.0"
     inkscape:pageopacity="0.0"
     inkscape:pageshadow="2"
     inkscape:zoom="4"
     inkscape:cx="100.22772"
     inkscape:cy="102.40185"
     inkscape:document-units="mm"
     inkscape:current-layer="layer1"
     showgrid="false"
     inkscape:window-width="1920"
     inkscape:window-height="1018"
     inkscape:window-x="-8"
     inkscape:window-y="-8"
     inkscape:window-maximized="1"
     units="px"
     inkscape:measure-start="470.944,33.4578"
     inkscape:measure-end="479.009,33.4921" />
  <metadata
     id="metadata5">
    <rdf:RDF>
      <cc:Work
         rdf:about="">
        <dc:format>image/svg+xml</dc:format>
        <dc:type
           rdf:resource="http://purl.org/dc/dcmitype/StillImage" />
        <dc:title />
      </cc:Work>
    </rdf:RDF>
  </metadata>
  <g
     inkscape:label="Capa 1"
     inkscape:groupmode="layer"
     id="layer1"
     transform="translate(0,-244.08334)">
    <g
       id="g953"
       transform="matrix(0.97884083,0,0,0.97859746,-48.30451,7.962507)">
      <path
         d="m 83.605908,250.67311 c -0.312603,0 -0.590103,0.0314 -0.833025,0.0946 -0.242925,0.0632 -0.448384,0.1605 -0.615982,0.29146 -0.165716,0.12945 -0.292873,0.29378 -0.381373,0.49247 -0.08661,0.19871 -0.129707,0.43339 -0.129707,0.70435 0,0.23783 0.04307,0.45164 0.129707,0.64131 0.08663,0.18816 0.213074,0.34758 0.378788,0.47852 0.1676,0.13097 0.37184,0.23094 0.612884,0.30024 0.242921,0.0693 0.518504,0.10387 0.827338,0.10387 0.126175,0 0.252619,-0.004 0.378788,-0.0114 0.126175,-0.008 0.246865,-0.0179 0.361736,-0.0315 0.114872,-0.0134 0.22283,-0.0284 0.324527,-0.045 0.10169,-0.018 0.192212,-0.0363 0.271302,-0.0543 l 0.01705,-0.71107 h -0.183967 l -0.104387,0.45166 c -0.04895,0.0301 -0.110021,0.0592 -0.183451,0.0879 -0.07156,0.0271 -0.15371,0.0513 -0.24598,0.0723 -0.09039,0.0211 -0.189289,0.0376 -0.296622,0.0496 -0.105455,0.0121 -0.216554,0.0181 -0.333314,0.0181 -0.214675,0 -0.40671,-0.028 -0.576191,-0.0837 -0.167601,-0.0557 -0.309571,-0.13924 -0.426331,-0.25063 -0.116758,-0.11289 -0.20605,-0.2536 -0.268201,-0.42219 -0.06215,-0.1701 -0.09354,-0.36962 -0.09354,-0.59842 0,-0.26041 0.03139,-0.47919 0.09354,-0.6568 0.06403,-0.17913 0.15525,-0.32312 0.273886,-0.4315 0.11864,-0.10988 0.263748,-0.18858 0.435116,-0.23668 0.173249,-0.0481 0.369818,-0.0724 0.590145,-0.0724 0.180782,0 0.357981,0.0182 0.531233,0.0543 0.175133,0.0346 0.328612,0.0841 0.460436,0.14883 l 0.08475,0.39274 h 0.186034 l -0.01654,-0.66146 c -0.08851,-0.015 -0.180252,-0.0293 -0.274402,-0.0429 -0.09416,-0.0135 -0.193738,-0.0257 -0.299206,-0.0362 -0.103571,-0.0104 -0.21276,-0.0188 -0.327629,-0.0248 -0.114871,-0.007 -0.237484,-0.0114 -0.367418,-0.0114 z m -17.787028,0.009 -1.290878,2.87217 -0.429432,0.0605 v 0.11989 h 1.24592 v -0.11989 l -0.508497,-0.0605 0.381373,-0.87385 h 1.491382 l 0.375687,0.87385 -0.508497,0.0605 v 0.11989 h 1.601454 v -0.11989 l -0.480076,-0.0605 -1.342035,-2.87217 z m 13.185757,0 -1.290876,2.87217 -0.429432,0.0605 v 0.11989 h 1.245918 v -0.11989 l -0.508495,-0.0605 0.381373,-0.87385 h 1.49138 l 0.375689,0.87385 -0.508497,0.0605 v 0.11989 h 1.601454 v -0.11989 l -0.480076,-0.0605 -1.342035,-2.87217 z m 9.976651,0 -1.290875,2.87217 -0.429432,0.0605 v 0.11989 h 1.24592 v -0.11989 l -0.508497,-0.0605 0.381373,-0.87385 h 1.491382 l 0.375687,0.87385 -0.508497,0.0605 v 0.11989 h 1.60197 v -0.11989 l -0.480592,-0.0605 -1.34152,-2.87217 z m -27.563174,0.0248 v 0.12041 l 0.485759,0.0584 v 2.66909 l -0.449067,0.061 v 0.11937 h 1.62419 v -0.11937 l -0.629936,-0.061 v -1.17874 h 1.115692 l 0.08733,0.36587 h 0.172601 v -0.93018 h -0.172601 l -0.08733,0.36122 H 62.44906 v -1.26245 h 0.618567 c 0.04331,0 0.104359,0.001 0.183451,0.002 0.07909,0 0.163163,0.001 0.251664,0.004 0.08851,0.002 0.175183,0.005 0.259932,0.009 0.08663,0.005 0.159872,0.01 0.220141,0.016 l 0.09043,0.48989 h 0.186557 v -0.7245 z m 6.971151,0 v 0.11937 l 0.485759,0.0589 v 2.66858 l -0.449069,0.061 v 0.11989 h 1.567863 v -0.11989 l -0.573609,-0.061 v -1.1467 h 0.681096 l 1.064535,1.32756 h 0.90692 v -0.11989 l -0.409792,-0.061 -1.02526,-1.21027 c 0.101687,-0.0241 0.199887,-0.0587 0.294036,-0.10387 0.09416,-0.0467 0.177014,-0.10433 0.248566,-0.17363 0.07156,-0.0692 0.128069,-0.14896 0.169497,-0.23926 0.04333,-0.0918 0.06459,-0.1957 0.06459,-0.31161 0,-0.12494 -0.02248,-0.23711 -0.0677,-0.33641 -0.04519,-0.0993 -0.121592,-0.18392 -0.228925,-0.25322 -0.107339,-0.0708 -0.250016,-0.12456 -0.428914,-0.16226 -0.177016,-0.0376 -0.39852,-0.0563 -0.664043,-0.0563 z m 3.864364,0 v 0.11937 l 0.485759,0.0589 v 2.66858 l -0.485759,0.061 v 0.11989 h 1.290876 v -0.11989 l -0.508495,-0.061 v -2.4226 l 1.386996,2.60346 h 0.0987 l 1.51102,-2.60346 v 2.4226 l -0.507979,0.061 v 0.11989 h 1.53634 v -0.11989 l -0.485759,-0.061 v -2.66858 l 0.485759,-0.0589 v -0.11937 h -1.084688 l -1.344621,2.3027 -1.23145,-2.3027 z m 13.228132,0 v 0.11937 l 0.485759,0.0589 v 2.66858 l -0.485759,0.061 v 0.11989 h 1.51412 v -0.11989 l -0.486275,-0.061 v -2.66858 l 0.486275,-0.0589 v -0.11937 z M 69.420209,250.91 h 0.483177 c 0.169481,0 0.313377,0.0105 0.432014,0.0315 0.12052,0.021 0.218718,0.0568 0.294039,0.10646 0.07721,0.0497 0.133729,0.11507 0.169498,0.19637 0.03577,0.0813 0.05374,0.18187 0.05374,0.3023 0,0.11592 -0.01606,0.21538 -0.04806,0.29818 -0.03202,0.0828 -0.0847,0.15157 -0.158131,0.20567 -0.07344,0.0527 -0.16972,0.0917 -0.288354,0.1173 -0.118639,0.0241 -0.264451,0.0362 -0.4377,0.0362 h -0.500229 z m -3.468521,0.0971 0.669211,1.46968 h -1.318784 z m 13.185759,0 0.669208,1.46968 h -1.318781 z m 9.976652,0 0.669726,1.46968 h -1.3193 z m -16.268774,4.58628 c -1.411417,0.052 -2.416599,0.90115 -2.816368,2.42466 -0.184706,0.70437 -0.182732,1.12275 0.0083,1.80506 0.35148,1.25544 0.877146,1.85377 2.247923,2.56057 0.657384,0.33898 1.449539,0.80077 1.760617,1.02577 1.399257,1.01206 0.648518,3.15847 -1.104844,3.15847 -0.82038,0 -1.409893,-0.4776 -1.837613,-1.48983 -0.222697,-0.52705 -0.521372,-0.92773 -0.715719,-0.95963 -0.289629,-0.0475 -0.325679,0.12692 -0.273368,1.32033 l 0.06046,1.37459 0.722952,0.28267 c 0.397719,0.15517 1.204275,0.28591 1.79214,0.28991 0.861057,0.006 1.194194,-0.0765 1.71359,-0.42582 1.115631,-0.75039 1.526722,-1.60662 1.535824,-3.1998 0.01155,-2.02689 -0.513652,-2.71936 -2.879413,-3.80132 -0.85493,-0.39101 -1.257184,-0.69728 -1.481563,-1.12655 -0.566833,-1.08441 0.04763,-2.33887 1.145667,-2.33887 0.531817,0 1.47843,0.57298 1.480531,0.89607 0.0031,0.51662 0.468196,1.41645 0.731737,1.41645 0.234204,0 0.300241,-0.25699 0.300241,-1.16737 0,-0.64182 -0.0908,-1.30246 -0.202057,-1.46865 -0.1159,-0.17312 -0.630653,-0.38438 -1.205092,-0.49454 -0.240752,-0.0462 -0.47289,-0.0736 -0.696082,-0.0816 -0.09765,-0.003 -0.193749,-0.004 -0.287837,-5.2e-4 z m 11.70006,3.73776 c -0.107262,0.002 -0.263578,0.15164 -0.479558,0.4439 -0.192666,0.26073 -0.63092,0.56746 -0.9741,0.6811 -0.726594,0.24057 -0.78831,0.53058 -0.210841,0.99218 0.373036,0.2982 0.413411,0.55075 0.413411,2.59519 0,2.25434 -0.0028,2.26596 -0.550352,2.61483 -0.302421,0.19276 -0.496062,0.41868 -0.430982,0.50178 0.06505,0.0832 0.82387,0.152 1.686203,0.154 1.228547,0.002 1.567862,-0.0483 1.567862,-0.23462 0,-0.13077 -0.162877,-0.3812 -0.361735,-0.55655 -0.297622,-0.26244 -0.373298,-0.70491 -0.428398,-2.50114 l -0.06718,-2.1823 0.61495,-0.52554 c 0.627983,-0.53737 0.963572,-0.62691 1.442807,-0.38396 0.380428,0.19285 0.685578,2.18502 0.61495,4.01216 -0.0549,1.41939 -0.09701,1.55644 -0.524518,1.70635 -0.255675,0.0897 -0.464571,0.25683 -0.464571,0.37156 0,0.15049 0.459081,0.20877 1.652614,0.20877 1.296924,0 1.653129,-0.051 1.653129,-0.23668 0,-0.13012 -0.186147,-0.28388 -0.413411,-0.34158 -0.389607,-0.0988 -0.413411,-0.24979 -0.413411,-2.64273 0,-1.39697 -0.09885,-2.74701 -0.220144,-3.00292 -0.612302,-1.29179 -1.92322,-1.57848 -3.1812,-0.69556 l -0.730705,0.51263 v -0.76016 c 0,-0.49362 -0.05691,-0.73371 -0.19482,-0.73071 z m -4.614188,0.48111 c -0.142597,6e-4 -0.310822,0.0122 -0.518832,0.031 -0.780587,0.0704 -1.100519,0.2082 -1.726509,0.74466 -0.426673,0.36562 -0.873075,0.96919 -1.004073,1.35806 -0.312547,0.92784 -0.04014,1.1523 0.811318,0.66766 0.483828,-0.27538 0.635622,-0.48856 0.635622,-0.89194 0,-1.02719 1.149085,-1.68667 1.645894,-0.94464 0.117633,0.17569 0.213939,0.7303 0.213939,1.23248 v 0.91312 l -1.220597,0.66249 c -1.690537,0.91767 -2.085144,1.36125 -2.085144,2.34456 0,1.5013 1.469284,1.97391 2.808615,0.90331 l 0.701765,-0.56069 0.259416,0.42168 c 0.406371,0.66112 0.881544,0.82366 1.371492,0.46922 0.45834,-0.33156 0.755615,-1.14209 0.5271,-1.43764 -0.101743,-0.13165 -0.210129,-0.1019 -0.34985,0.0977 -0.406218,0.58024 -0.559973,-0.15624 -0.563272,-2.68924 -0.0031,-2.49265 -0.01073,-2.53196 -0.535884,-2.95176 -0.346692,-0.27717 -0.543214,-0.372 -0.971,-0.37 z m 0.04651,3.70055 0.0057,1.07797 c 0.0031,0.71413 -0.103196,1.20224 -0.316259,1.44539 -0.373708,0.42648 -1.024255,0.4832 -1.205611,0.10542 h -5.16e-4 c -0.321802,-0.67035 -0.114356,-1.24733 0.695563,-1.93322 z m -18.790583,0.41289 v 0.4129 c 0,0.31735 0.107809,0.41348 0.465087,0.41548 0.255675,10e-4 0.567817,0.0573 0.694015,0.12402 0.247992,0.13115 0.568246,12.9228 0.350364,13.99604 -0.154575,0.76145 -0.533696,0.72891 -0.992703,-0.0848 -0.588203,-1.04266 -1.549776,-0.81215 -1.549776,0.37156 0,1.58159 1.199713,2.08903 2.536796,1.07332 0.851879,-0.64715 1.543582,-2.04967 1.805575,-3.66076 0.104619,-0.6434 0.19287,-3.56151 0.196371,-6.48488 l 0.0067,-5.31543 0.567922,-0.0522 c 0.406813,-0.0374 0.586801,-0.15768 0.634072,-0.42374 0.0652,-0.36759 0.03632,-0.37156 -2.324407,-0.37156 z m 14.852321,3.82457 c -0.118062,-0.0107 -0.280381,0.14048 -0.48369,0.45476 -0.171122,0.26452 -0.612433,0.66973 -0.980818,0.9002 l -0.669727,0.4191 0.458886,0.39067 c 0.432607,0.36808 0.459404,0.53448 0.459404,2.88716 0,2.35176 -0.02417,2.50321 -0.413412,2.60191 -0.227266,0.0577 -0.412895,0.2482 -0.412895,0.42375 0,0.29184 0.159205,0.31936 1.85932,0.31936 1.721717,0 1.859317,-0.0244 1.859317,-0.33021 0,-0.20797 -0.137915,-0.33073 -0.372071,-0.33073 -0.76999,0 -0.867846,-0.31684 -0.864547,-2.79932 0.0031,-2.58091 0.135059,-3.05882 0.715719,-2.59467 0.711687,0.5689 1.347206,0.2021 1.347206,-0.77773 0,-0.66476 -0.448543,-1.25987 -0.949815,-1.25987 -0.146397,0 -0.503259,0.3157 -0.792715,0.70176 l -0.526066,0.70177 -0.0016,-0.86713 c -0.0013,-0.54577 -0.08075,-0.82698 -0.232545,-0.84078 z m 13.762985,0.30541 c -0.751134,0 -1.644565,0.59144 -2.26291,1.49862 -1.181722,1.73375 -0.917421,4.8582 0.52193,6.16861 0.541089,0.4926 0.809543,0.60842 1.695503,0.73174 0.08887,0.0123 0.47202,-0.0811 0.851112,-0.20774 0.746474,-0.24933 1.776637,-1.2022 1.776637,-1.64331 0,-0.36472 -0.337058,-0.34498 -0.976169,0.0568 -0.71727,0.451 -1.222301,0.41479 -1.912543,-0.13694 -0.639512,-0.51122 -1.033696,-1.4174 -1.035598,-2.38126 -0.0016,-0.71121 -0.04578,-0.70056 2.535764,-0.62786 l 1.607653,0.0455 -0.131257,-0.72088 c -0.280884,-1.54035 -1.473449,-2.7833 -2.670122,-2.7833 z m -19.737297,0.0124 c -0.05651,-10e-4 -0.113168,-9.6e-4 -0.169498,0.001 -1.502129,0.0588 -2.915092,1.48294 -3.086634,3.7977 -0.240141,3.2403 2.178849,5.4099 4.655013,4.17494 0.254802,-0.12708 0.718256,-0.61978 1.029912,-1.09502 0.517136,-0.78858 0.567192,-1.02306 0.569991,-2.68098 0.0031,-1.70892 -0.03345,-1.87044 -0.6165,-2.7249 -0.672094,-0.98494 -1.534485,-1.44778 -2.382284,-1.47278 z m 12.385291,0.15142 c -1.300575,-1e-5 -2.01214,0.39086 -2.610176,1.43505 -0.672375,1.17397 -0.585009,2.53893 0.224793,3.5171 l 0.526582,0.63562 -0.831474,0.71572 c -0.748626,0.64442 -0.820407,0.78114 -0.727086,1.37614 0.07059,0.44979 0.290782,0.79474 0.690912,1.08056 l 0.587563,0.41961 -0.677995,0.50643 c -0.554562,0.41417 -0.677995,0.63094 -0.677995,1.18804 0,1.51042 2.204159,2.39547 4.403865,1.76837 1.510655,-0.43066 2.266527,-1.3142 2.266527,-2.65049 0,-1.71088 -0.933757,-2.4237 -3.250446,-2.4815 -1.67604,-0.0418 -1.97404,-0.12531 -1.97404,-0.55242 0,-0.64385 0.531248,-0.93018 1.725993,-0.93018 0.977284,0 1.228577,-0.0684 1.768882,-0.48214 0.870625,-0.66666 1.334188,-1.71 1.211813,-2.728 -0.08996,-0.74841 -0.066,-0.80714 0.269751,-0.66352 0.202615,0.0867 0.459978,0.15813 0.572058,0.15813 0.318852,0 0.482402,-0.887 0.252698,-1.36995 -0.200022,-0.42053 -0.231523,-0.42776 -0.881599,-0.20928 -0.639173,0.21483 -0.710089,0.20156 -1.358056,-0.25322 -0.511747,-0.35918 -0.891553,-0.48007 -1.51257,-0.48007 z m -12.467974,0.55552 c 0.491649,0.0265 0.9432,0.39473 1.16427,1.00097 0.387123,1.06158 0.309555,4.20206 -0.12609,5.1139 -0.311234,0.65146 -0.446198,0.76171 -0.934309,0.76171 -0.317585,0 -0.745779,-0.15394 -0.964798,-0.34726 -0.339342,-0.29951 -0.403215,-0.66842 -0.465606,-2.67478 -0.07883,-2.53495 0.125209,-3.46277 0.828373,-3.76359 0.165852,-0.071 0.33428,-0.1 0.49816,-0.091 z m 19.829799,0.0119 c 0.363529,0.0264 0.698415,0.36767 0.902787,1.01648 0.133191,0.42276 0.214617,0.79052 0.180867,0.81752 -0.147117,0.11751 -1.148909,0.18834 -1.765266,0.12454 -0.748935,-0.0775 -0.819047,-0.27201 -0.393258,-1.08624 0.319355,-0.6107 0.711337,-0.8987 1.07487,-0.8723 z m -7.51272,0.12661 c 0.07844,0.002 0.160166,0.0125 0.244946,0.0295 0.614551,0.12331 0.846744,0.76064 0.849043,2.33215 0.0016,1.15875 -0.180475,1.77516 -0.630968,2.13528 -0.440309,0.35195 -0.609931,0.32841 -1.081587,-0.1509 -0.791747,-0.80456 -0.771954,-3.53452 0.03049,-4.17597 0.149201,-0.11919 0.352763,-0.17702 0.588078,-0.17002 z m 0.188103,8.88783 c 1.554393,-0.003 2.04587,0.26034 2.04587,1.09606 0,0.55195 -0.59386,1.08959 -1.51102,1.36735 -0.593225,0.17968 -0.724191,0.1847 -1.532207,0.06 -0.553384,-0.0854 -1.295527,-0.79467 -1.295527,-1.23817 0,-0.36943 0.373028,-0.98567 0.702799,-1.16168 0.125034,-0.0668 0.840666,-0.12251 1.590085,-0.12351 z m -13.087059,5.07618 c -0.297537,0 -0.561422,0.0301 -0.791165,0.0904 -0.229743,0.0602 -0.422476,0.15363 -0.578776,0.28009 -0.1563,0.12644 -0.275764,0.28641 -0.358634,0.48059 -0.08098,0.19419 -0.121439,0.42556 -0.121439,0.6935 0,0.26796 0.04237,0.50044 0.127125,0.69763 0.08474,0.19569 0.206832,0.35729 0.3669,0.48524 0.160067,0.12795 0.354018,0.2236 0.581877,0.2868 0.227862,0.0617 0.485992,0.0925 0.774112,0.0925 0.288121,0 0.546257,-0.0308 0.774116,-0.0925 0.229743,-0.0632 0.424391,-0.15885 0.584459,-0.2868 0.160068,-0.12795 0.28267,-0.28955 0.367419,-0.48524 0.08473,-0.1972 0.127124,-0.42968 0.127124,-0.69763 0,-0.26794 -0.04237,-0.49932 -0.127124,-0.6935 -0.08474,-0.19418 -0.207351,-0.35415 -0.367419,-0.48059 -0.160068,-0.12646 -0.354716,-0.21979 -0.584459,-0.28009 -0.227859,-0.0602 -0.485995,-0.0904 -0.774116,-0.0904 z m 4.290695,0 c -0.642146,0 -1.129643,0.1319 -1.46296,0.39532 -0.331431,0.26192 -0.497126,0.65767 -0.497126,1.18753 0,0.24838 0.04501,0.46714 0.135393,0.6568 0.09039,0.18968 0.220157,0.34958 0.389638,0.47904 0.169485,0.12794 0.373724,0.22464 0.612884,0.29094 0.241041,0.0647 0.511381,0.0971 0.810802,0.0971 0.271174,0 0.52477,-0.0192 0.760161,-0.0584 0.235392,-0.0391 0.462135,-0.0874 0.68058,-0.1447 v -0.98443 l 0.370001,-0.0589 v -0.12144 h -1.398362 v 0.12144 l 0.485756,0.0589 v 0.86041 c -0.03578,0.0166 -0.08461,0.0336 -0.146759,0.0517 -0.06215,0.018 -0.133477,0.0345 -0.214458,0.0496 -0.07909,0.0149 -0.165079,0.0283 -0.257349,0.0387 -0.09039,0.01 -0.181616,0.0134 -0.273884,0.0134 -0.182663,0 -0.356732,-0.0219 -0.522449,-0.0656 -0.163832,-0.0437 -0.308948,-0.11729 -0.435115,-0.22117 -0.124291,-0.10386 -0.223195,-0.24237 -0.296624,-0.41548 -0.07344,-0.17462 -0.11007,-0.39226 -0.11007,-0.65267 0,-0.25739 0.03087,-0.47454 0.09302,-0.65216 0.06403,-0.17913 0.155766,-0.32368 0.274402,-0.43357 0.118637,-0.10988 0.263232,-0.18909 0.4346,-0.23719 0.173249,-0.0497 0.370332,-0.0744 0.590661,-0.0744 0.201496,0 0.392311,0.0204 0.573092,0.061 0.182669,0.0391 0.339286,0.0953 0.46922,0.16898 l 0.07597,0.37518 h 0.189653 v -0.65061 c -0.199612,-0.0421 -0.410826,-0.075 -0.633036,-0.0992 -0.22033,-0.0241 -0.452824,-0.0362 -0.697633,-0.0362 z m 17.273365,0.009 -1.290878,2.87217 -0.429432,0.061 v 0.11937 h 1.245404 v -0.11937 l -0.508497,-0.061 0.381373,-0.87384 h 1.491382 l 0.375687,0.87384 -0.507978,0.061 v 0.11937 h 1.601451 v -0.11937 l -0.480073,-0.061 -1.342038,-2.87217 z m -31.529858,0.0248 v 0.12041 l 0.486275,0.0589 v 2.66857 l -0.486275,0.061 v 0.11989 h 0.486275 0.273886 c 0.111104,0.001 0.227963,0.003 0.350367,0.004 0.122401,0.001 0.246417,0.002 0.372586,0.002 0.12805,10e-4 0.245615,0.002 0.352949,0.002 0.329552,0 0.615939,-0.0335 0.858864,-0.10129 0.244808,-0.0677 0.44713,-0.1672 0.607197,-0.29817 0.160068,-0.13097 0.280062,-0.29199 0.359151,-0.48317 0.07909,-0.19117 0.11834,-0.41046 0.11834,-0.65733 0,-0.27546 -0.04884,-0.50796 -0.146761,-0.69763 -0.09604,-0.18966 -0.233482,-0.34358 -0.41238,-0.4625 -0.178898,-0.11892 -0.395348,-0.20517 -0.649571,-0.25787 -0.252343,-0.0527 -0.536109,-0.0786 -0.850595,-0.0786 z m 4.180623,0 v 0.11937 l 0.485759,0.0589 v 2.66857 l -0.449069,0.061 v 0.11988 h 1.567862 v -0.11988 l -0.573606,-0.061 v -1.1467 h 0.681093 l 1.065052,1.32756 h 0.906406 v -0.11988 l -0.409278,-0.061 -1.025777,-1.21026 c 0.10169,-0.0241 0.199888,-0.0588 0.29404,-0.10387 0.09415,-0.0467 0.177011,-0.10434 0.248563,-0.17364 0.07156,-0.0692 0.128069,-0.14896 0.169497,-0.23926 0.04333,-0.0918 0.06512,-0.1957 0.06511,-0.31161 0,-0.12494 -0.023,-0.23711 -0.06822,-0.33641 -0.04519,-0.0993 -0.121073,-0.18401 -0.228409,-0.25322 -0.107339,-0.0708 -0.250529,-0.12456 -0.42943,-0.16226 -0.177014,-0.0376 -0.398518,-0.0563 -0.664043,-0.0563 z m 12.180136,0 v 0.11937 l 0.486275,0.0589 v 1.85156 c 0,0.33266 0.124013,0.58992 0.372586,0.77205 0.250458,0.18065 0.627362,0.27078 1.130163,0.27078 0.290004,0 0.528952,-0.0308 0.717269,-0.0925 0.190199,-0.0617 0.339847,-0.14308 0.44907,-0.24391 0.109225,-0.10085 0.185605,-0.21573 0.228925,-0.3452 0.04333,-0.13095 0.06511,-0.26563 0.06511,-0.40411 v -1.80867 l 0.485756,-0.0589 v -0.11937 h -1.290875 v 0.11937 l 0.508495,0.0589 v 1.82676 c 0,0.12193 -0.02179,0.23299 -0.06511,0.33383 -0.04143,0.10086 -0.108235,0.18655 -0.200504,0.25735 -0.09039,0.0707 -0.206547,0.12564 -0.347784,0.16485 -0.141237,0.0392 -0.310766,0.0589 -0.508495,0.0589 -0.180781,0 -0.334962,-0.0198 -0.46302,-0.0589 -0.12617,-0.0391 -0.229595,-0.0947 -0.310576,-0.16692 -0.07909,-0.0723 -0.137533,-0.15858 -0.175184,-0.25942 -0.0358,-0.10236 -0.05374,-0.21555 -0.05374,-0.33899 v -1.81746 l 0.485757,-0.0589 v -0.11937 z m 4.226097,0 v 0.12041 l 0.485759,0.0589 v 2.66909 l -0.485759,0.0605 v 0.11989 h 3.02514 l 0.05374,-0.79944 h -0.186552 l -0.16123,0.56018 c -0.02824,0.005 -0.07203,0.009 -0.132291,0.0134 -0.05837,0.004 -0.129003,0.008 -0.211873,0.0114 -0.08286,0.003 -0.176509,0.006 -0.280088,0.009 -0.103571,10e-4 -0.213453,0.002 -0.330211,0.002 h -0.745691 v -1.23506 h 1.022676 l 0.08733,0.36587 h 0.180867 v -0.93018 h -0.180867 l -0.08733,0.36122 h -1.022676 v -1.18339 h 0.618567 c 0.04331,0 0.10436,0.001 0.183451,0.002 0.07909,0 0.163164,10e-4 0.251664,0.004 0.08851,0.002 0.175183,0.005 0.259932,0.009 0.08663,0.005 0.159883,0.01 0.220141,0.016 l 0.09043,0.4899 h 0.186552 v -0.72451 z m 3.53622,0 v 0.11937 l 0.485759,0.0589 v 2.66857 l -0.44907,0.061 v 0.11988 h 1.567863 v -0.11988 l -0.573609,-0.061 v -1.1467 h 0.681096 l 1.065051,1.32756 h 0.906404 v -0.11988 l -0.409276,-0.061 -1.025779,-1.21026 c 0.10169,-0.0241 0.19989,-0.0588 0.29404,-0.10387 0.09416,-0.0467 0.177014,-0.10434 0.248565,-0.17364 0.07156,-0.0692 0.128066,-0.14896 0.169498,-0.23926 0.04333,-0.0918 0.06511,-0.1957 0.06511,-0.31161 0,-0.12494 -0.023,-0.23711 -0.06821,-0.33641 -0.04519,-0.0993 -0.121076,-0.18401 -0.22841,-0.25322 -0.107341,-0.0708 -0.250531,-0.12456 -0.429432,-0.16226 -0.177014,-0.0376 -0.398518,-0.0563 -0.66404,-0.0563 z m 3.906737,0 v 0.11937 l 0.485759,0.0589 v 2.66857 l -0.485759,0.061 v 0.11988 h 1.51412 v -0.11988 l -0.485759,-0.061 v -2.66857 l 0.485759,-0.0589 v -0.11937 z m -18.064015,0.14676 c 0.244809,0 0.44835,0.0314 0.610302,0.0946 0.161948,0.0632 0.291015,0.15445 0.387056,0.27337 0.09791,0.1174 0.166637,0.26033 0.206187,0.42892 0.03955,0.16857 0.05891,0.35765 0.05891,0.56689 0,0.21073 -0.01936,0.40092 -0.05891,0.57102 -0.03955,0.17009 -0.108267,0.31572 -0.206187,0.43615 -0.09604,0.12043 -0.225108,0.21337 -0.387056,0.27957 -0.161952,0.0647 -0.365493,0.0971 -0.610302,0.0971 -0.244808,0 -0.448344,-0.0324 -0.610298,-0.0971 -0.161946,-0.0662 -0.291026,-0.15914 -0.387056,-0.27957 -0.09605,-0.12043 -0.163537,-0.26606 -0.203087,-0.43615 -0.03955,-0.1701 -0.05943,-0.36029 -0.05943,-0.57102 0,-0.20924 0.01988,-0.39832 0.05943,-0.56689 0.03955,-0.16859 0.107048,-0.31152 0.203087,-0.42892 0.09604,-0.11892 0.22511,-0.21017 0.387056,-0.27337 0.161954,-0.0632 0.36549,-0.0946 0.610298,-0.0946 z m -8.934336,0.0563 h 0.507979 c 0.25046,0 0.477716,0.0253 0.681096,0.0765 0.203377,0.0512 0.376745,0.12975 0.519864,0.23513 0.144999,0.10536 0.256103,0.23895 0.333314,0.40153 0.07718,0.16104 0.115755,0.3534 0.115755,0.57619 0,0.22278 -0.02634,0.41738 -0.07906,0.58446 -0.05085,0.16708 -0.131072,0.30723 -0.240295,0.42013 -0.109225,0.11139 -0.249282,0.1955 -0.420648,0.2527 -0.169484,0.0556 -0.37424,0.0837 -0.613399,0.0837 h -0.208772 l -0.209291,-0.004 c -0.06968,-0.003 -0.137168,-0.006 -0.203086,-0.007 -0.06591,-0.002 -0.126974,-0.004 -0.183452,-0.007 z m 4.180107,0 h 0.483175 c 0.169481,0 0.313377,0.0105 0.432014,0.0315 0.12052,0.021 0.218718,0.0562 0.294039,0.10594 0.07722,0.0497 0.133718,0.11559 0.169498,0.19689 0.0358,0.0813 0.05374,0.18186 0.05374,0.30231 0,0.1159 -0.01606,0.21537 -0.04806,0.29817 -0.03201,0.0828 -0.08469,0.15105 -0.15813,0.20515 -0.07344,0.0527 -0.16972,0.0922 -0.288354,0.11783 -0.118636,0.0241 -0.264451,0.0356 -0.4377,0.0356 h -0.500224 z m 19.94245,0 h 0.483174 c 0.169485,0 0.313381,0.0105 0.432017,0.0315 0.120523,0.021 0.218718,0.0562 0.294037,0.10594 0.07721,0.0497 0.133721,0.11559 0.1695,0.19689 0.0358,0.0813 0.05374,0.18186 0.05374,0.30231 0,0.1159 -0.01606,0.21537 -0.04806,0.29817 -0.03202,0.0828 -0.0847,0.15105 -0.158128,0.20515 -0.07345,0.0527 -0.169719,0.0922 -0.288356,0.11783 -0.118639,0.0241 -0.264448,0.0356 -0.437698,0.0356 h -0.500228 z m 6.508131,0.0971 0.669727,1.46968 h -1.3193 z m 10.118055,-14.88285 a 24.836021,24.836021 0 0 1 -24.83602,24.83603 24.836021,24.836021 0 0 1 -24.836022,-24.83603 24.836021,24.836021 0 0 1 24.836022,-24.83602 24.836021,24.836021 0 0 1 24.83602,24.83602 z"
         style="opacity:1;fill:#007037;fill-opacity:0.98823529;stroke:none;stroke-width:0.1;stroke-miterlimit:4;stroke-dasharray:none;stroke-opacity:0.96470588"
         id="rect4652"
         inkscape:connector-curvature="0" />
      <circle
         style="opacity:1;fill:none;fill-opacity:0.98823529;stroke:#007037;stroke-width:1.20799994;stroke-miterlimit:4;stroke-dasharray:none;stroke-opacity:0.98823529"
         id="circle947"
         cx="76.37896"
         cy="268.32864"
         r="26.426275" />
    </g>
  </g>
</svg>
