<?xml version="1.0" encoding="UTF-8" standalone="no"?>
<svg
   xmlns:dc="http://purl.org/dc/elements/1.1/"
   xmlns:cc="http://creativecommons.org/ns#"
   xmlns:rdf="http://www.w3.org/1999/02/22-rdf-syntax-ns#"
   xmlns:svg="http://www.w3.org/2000/svg"
   xmlns="http://www.w3.org/2000/svg"
   xmlns:sodipodi="http://sodipodi.sourceforge.net/DTD/sodipodi-0.dtd"
   xmlns:inkscape="http://www.inkscape.org/namespaces/inkscape"
   viewBox="0 0 512 512"
   version="1.1"
   id="svg4"
   sodipodi:docname="box.svg"
   inkscape:version="0.92.3 (2405546, 2018-03-11)">
  <metadata
     id="metadata10">
    <rdf:RDF>
      <cc:Work
         rdf:about="">
        <dc:format>image/svg+xml</dc:format>
        <dc:type
           rdf:resource="http://purl.org/dc/dcmitype/StillImage" />
      </cc:Work>
    </rdf:RDF>
  </metadata>
  <defs
     id="defs8" />
  <sodipodi:namedview
     pagecolor="#ffffff"
     bordercolor="#666666"
     borderopacity="1"
     objecttolerance="10"
     gridtolerance="10"
     guidetolerance="10"
     inkscape:pageopacity="0"
     inkscape:pageshadow="2"
     inkscape:window-width="1920"
     inkscape:window-height="1018"
     id="namedview6"
     showgrid="false"
     inkscape:zoom="0.921875"
     inkscape:cx="-108.21545"
     inkscape:cy="285.16895"
     inkscape:window-x="-8"
     inkscape:window-y="-8"
     inkscape:window-maximized="1"
     inkscape:current-layer="svg4" />
  <g
     id="g827"
     style="fill:none;fill-opacity:0;stroke:#008900;stroke-opacity:1"
     inkscape:export-xdpi="95"
     inkscape:export-ydpi="95">
    <rect
       y="253.28813"
       x="114.44067"
       height="177.8983"
       width="325.42374"
       id="rect817"
       style="fill:none;fill-opacity:0;stroke:#008900;stroke-width:1;stroke-miterlimit:4;stroke-dasharray:none;stroke-opacity:1" />
    <path
       sodipodi:nodetypes="ccccc"
       inkscape:connector-curvature="0"
       id="path819"
       d="M 114.44068,253.28814 193.62712,174.1017 H 494.1017 l -54.23728,79.18644 H 114.44068"
       style="fill:none;fill-opacity:0;stroke:#008900;stroke-width:1px;stroke-linecap:butt;stroke-linejoin:miter;stroke-opacity:1" />
    <path
       sodipodi:nodetypes="cc"
       inkscape:connector-curvature="0"
       id="path823"
       d="M 274.30509,253.42373 326.9303,175.05226"
       style="fill:none;stroke:#008900;stroke-width:1px;stroke-linecap:butt;stroke-linejoin:miter;stroke-opacity:1;fill-opacity:0" />
    <path
       d="M 439.86442,431.18646 V 253.28814 L 494.1017,174.1017 m 0,0 v 171.38983 l -54.23728,85.69493"
       style="fill:none;fill-opacity:0;stroke:#008900;stroke-width:1px;stroke-linecap:butt;stroke-linejoin:miter;stroke-opacity:1"
       id="path825"
       inkscape:connector-curvature="0" />
    <path
       inkscape:export-ydpi="95"
       inkscape:export-xdpi="95"
       inkscape:connector-curvature="0"
       id="path826"
       d="m 210.23862,343.86441 v -79.72042 h 66.91393 66.9139 v 79.72042 79.72042 h -66.9139 -66.91393 z m 129.18809,-1.44072 -0.16263,-76.03857 -61.95139,-0.16335 -61.9514,-0.16336 v 76.20182 76.20181 h 62.11411 62.11407 z M 219.46996,414.0333 c -0.14666,-0.14665 -0.26679,-32.49113 -0.26679,-71.87643 v -71.60965 h 57.95214 57.95212 l -0.16281,71.72329 -0.16283,71.72325 -57.52249,0.15319 c -31.63737,0.0842 -57.64253,0.0331 -57.78928,-0.11361 z m 15.19838,-7.55004 c 1.75489,-1.75489 1.76547,-5.65251 0.0201,-7.3979 -0.80986,-0.80987 -2.44511,-1.40222 -4.38623,-1.58888 l -3.09496,-0.2976 0.11779,5.34898 c 0.0647,2.94195 0.13687,5.40003 0.16011,5.4624 0.0233,0.0625 1.35388,0.0394 2.95704,-0.0511 1.91913,-0.10831 3.36274,-0.61249 4.22614,-1.47588 z m -4.57966,-3.70899 c 0,-3.22836 0.21045,-4.16211 0.93796,-4.16211 2.00919,0 3.17253,5.87856 1.49528,7.55582 -1.76775,1.76774 -2.43324,0.83955 -2.43324,-3.39371 z m 11.72197,3.20161 c -0.4539,-2.79695 0.59194,-2.95249 2.14736,-0.31934 0.62436,1.057 1.64659,2.08412 2.27161,2.28248 1.30447,0.41403 2.86868,-0.31504 1.97948,-0.92261 -0.32214,-0.22011 -1.06744,-1.10432 -1.65622,-1.96492 -0.97318,-1.42245 -0.97927,-1.66553 -0.0669,-2.67372 2.2267,-2.46048 -0.41034,-5.01898 -5.19169,-5.03709 l -2.56129,-0.008 0.13177,5.28293 c 0.0724,2.9056 0.14448,5.35496 0.16009,5.443 0.0163,0.088 0.73059,0.1601 1.5889,0.1601 1.42587,0 1.52915,-0.1934 1.19685,-2.24113 z m -0.19614,-5.44275 c 0,-1.71824 0.20917,-1.98035 1.44074,-1.80543 1.05533,0.14991 1.44074,0.63284 1.44074,1.80543 0,1.1726 -0.38541,1.65554 -1.44074,1.80542 -1.23157,0.17497 -1.44074,-0.0871 -1.44074,-1.80542 z m 16.2103,6.93897 c 2.68921,-1.43228 3.72357,-4.30688 2.6017,-7.23046 -0.48575,-1.26582 -3.52709,-2.91013 -5.38262,-2.91013 -1.7309,0 -5.10514,3.33332 -5.10514,5.0432 0,4.34152 4.20362,7.05868 7.88606,5.09739 z m -3.58042,-0.62182 c -0.83316,-0.46629 -1.10403,-1.46855 -1.10403,-4.08531 0,-2.8758 0.23127,-3.59121 1.35536,-4.1928 2.32908,-1.24647 3.40903,0.75974 3.1978,5.94046 -0.0839,2.05495 -1.83427,3.24135 -3.44913,2.33765 z m 17.50748,0.70389 c 0.71025,-0.3801 1.23855,-1.33608 1.23855,-2.24113 0,-1.23191 -0.33183,-1.57828 -1.512,-1.57828 -1.26552,0 -1.46239,0.25966 -1.20754,1.59283 0.36584,1.91369 -1.03918,2.68138 -2.99334,1.63557 -1.06904,-0.57214 -1.33067,-1.32824 -1.33067,-3.84554 0,-4.71916 2.43287,-6.55486 5.12259,-3.86516 1.58884,1.58887 1.92096,1.6027 1.92096,0.0801 0,-1.18002 -2.15481,-2.00101 -5.25187,-2.00101 -1.96187,0 -4.99331,3.43422 -4.99331,5.65674 0,3.72078 5.43631,6.4767 9.00663,4.56592 z m 11.1904,-0.23807 c 0.94586,-0.69162 1.31051,-1.95612 1.56956,-5.44275 0.24701,-3.32434 0.1287,-4.54184 -0.44133,-4.54184 -0.52258,0 -0.84069,1.5272 -0.96692,4.64236 -0.1838,4.53506 -0.22884,4.64703 -1.949,4.84495 l -1.76091,0.20262 v -4.84498 c 0,-4.61807 -0.0684,-4.84495 -1.46164,-4.84495 -1.40951,0 -1.45317,0.16571 -1.22346,4.64236 0.25242,4.91891 1.02569,6.24315 3.64561,6.24315 0.74581,0 1.91047,-0.40542 2.58809,-0.90092 z m 13.00738,-0.67951 c 0.2051,-1.07638 0.0943,-1.13927 -0.75895,-0.43107 -1.67847,1.39301 -3.92192,0.66374 -4.15366,-1.3502 -0.22782,-1.98013 0.76126,-2.34159 1.75216,-0.64033 0.5213,0.89506 0.65266,0.60514 0.65266,-1.44072 0,-2.04587 -0.1314,-2.3358 -0.65266,-1.44074 -0.99691,1.71158 -1.8697,1.33794 -1.8697,-0.8004 0,-1.57761 0.26324,-1.92097 1.47274,-1.92097 0.81002,0 1.81854,0.34578 2.24114,0.76838 0.59764,0.59764 0.7684,0.45533 0.7684,-0.64032 0,-1.28063 -0.32016,-1.40871 -3.52179,-1.40871 h -3.52178 v 5.4747 5.47473 l 3.67564,-0.19205 c 3.06427,-0.16008 3.71559,-0.40167 3.9158,-1.4523 z m 6.0385,-0.74075 c -0.45174,-2.78378 0.298,-2.73207 2.75107,0.18972 1.4213,1.69288 2.28822,2.23017 3.09737,1.91968 1.01567,-0.38976 0.96192,-0.62335 -0.55939,-2.43132 -1.52981,-1.81809 -1.59318,-2.09943 -0.69615,-3.09066 2.28132,-2.52082 0.7584,-4.37132 -4.06791,-4.94293 l -3.26943,-0.38721 v 5.45192 c 0,5.33847 0.0323,5.4519 1.54757,5.4519 1.40014,0 1.51416,-0.2059 1.19687,-2.1611 z m -0.18314,-5.36271 c 0,-1.71824 0.20917,-1.98035 1.44073,-1.80543 1.05533,0.14991 1.44073,0.63284 1.44073,1.80543 0,1.1726 -0.3854,1.65554 -1.44073,1.80542 -1.23156,0.17497 -1.44073,-0.0871 -1.44073,-1.80542 z m 12.37157,2.05337 c 0.11304,-5.23169 0.0923,-5.30757 -1.39397,-5.12258 -1.44243,0.17951 -1.50717,0.40579 -1.47275,5.15026 0.0198,2.72938 0.0504,5.12664 0.0681,5.32721 0.0181,0.2006 0.6287,0.27261 1.35799,0.16009 1.20692,-0.18623 1.33625,-0.68133 1.44072,-5.51495 z m 4.9172,3.98914 c 0,-1.46608 0.22225,-1.61994 2.08106,-1.44072 1.59501,0.15374 2.12884,0.53714 2.28568,1.64136 0.15028,1.05776 0.6325,1.44074 1.81424,1.44074 0.88531,0 1.51359,-0.23407 1.3962,-0.52015 -2.68834,-6.55138 -4.12126,-9.72127 -4.39522,-9.72295 -0.32605,-0.002 -5.10293,9.29683 -5.10293,9.93354 0,0.17024 0.43221,0.30956 0.96049,0.30956 0.60395,0 0.96048,-0.60925 0.96048,-1.64138 z m 1.28066,-3.12325 c 0,-1.3547 1.08388,-1.7943 1.53371,-0.62208 0.54765,1.42715 0.50401,1.54477 -0.57324,1.54477 -0.52827,0 -0.96047,-0.41521 -0.96047,-0.92269 z m -24.7702,-13.45185 c 4.68188,-1.66975 7.02405,-5.09694 7.02405,-10.27796 0,-6.6334 -2.89275,-9.3962 -10.0727,-9.62009 -5.19446,-0.16191 -6.11835,-0.48533 -6.11835,-2.14132 0,-2.4963 1.64662,-3.60639 5.34939,-3.60639 3.02885,0 3.80794,-0.26569 5.48246,-1.8698 2.69828,-2.58479 4.13407,-6.62878 3.75483,-10.57569 -0.27881,-2.90165 -0.20472,-3.12974 0.83581,-2.57284 0.62796,0.33605 1.42594,0.61103 1.77328,0.61103 0.98821,0 1.49547,-3.43809 0.78354,-5.31061 -0.61988,-1.63047 -0.71794,-1.65962 -2.73267,-0.81248 -1.98094,0.83291 -2.19999,0.78183 -4.20819,-0.98141 -1.58603,-1.39253 -2.76462,-1.86004 -4.68929,-1.86004 -4.03079,0 -6.23479,1.51641 -8.08824,5.56487 -2.08384,4.55173 -1.81382,9.84233 0.69594,13.63484 l 1.63186,2.46594 -2.57602,2.77406 c -2.3201,2.49852 -2.5441,3.0285 -2.25485,5.33538 0.21865,1.74392 0.90238,3.08071 2.14247,4.18882 l 1.82134,1.62753 -2.10197,1.96386 c -1.7187,1.6058 -2.10195,2.44553 -2.10195,4.60556 0,5.8561 6.83188,9.28814 13.64926,6.85674 z m -5.79255,-2.0838 c -1.71509,-0.33129 -4.01477,-3.08122 -4.01477,-4.80083 0,-1.43225 1.15482,-3.82165 2.17691,-4.5041 0.3875,-0.25874 2.60488,-0.47485 4.92748,-0.48023 4.81743,-0.0104 6.3424,1.01099 6.3424,4.25118 0,2.14006 -1.84153,4.22423 -4.68403,5.30121 -1.83852,0.6966 -2.24375,0.71647 -4.74799,0.23277 z m 0.5896,-27.39408 c -2.45376,-3.11949 -2.39115,-13.70318 0.0959,-16.19014 0.61652,-0.61652 1.53021,-0.80979 2.58126,-0.54597 1.90464,0.478 2.62376,2.94938 2.63117,9.0424 0.006,4.49264 -0.5591,6.88326 -1.95529,8.27945 -1.3646,1.3646 -1.89118,1.27262 -3.35297,-0.58574 z m -58.8543,27.0439 c 2.64016,-2.50906 4.78446,-7.94748 5.59645,-14.19393 0.32428,-2.49457 0.59849,-13.80914 0.60936,-25.14351 l 0.0198,-20.60795 1.76086,-0.20259 c 1.26083,-0.14503 1.81903,-0.61178 1.96553,-1.64336 0.20209,-1.42285 0.11269,-1.44072 -7.20365,-1.44072 h -7.40828 v 1.60081 c 0,1.2303 0.33346,1.60308 1.44074,1.61061 0.79242,0.006 1.76071,0.22152 2.15178,0.48026 0.76861,0.5085 1.75996,50.10386 1.08468,54.26502 -0.47906,2.95226 -1.65381,2.8272 -3.07638,-0.32748 -1.82299,-4.04264 -4.80243,-3.14895 -4.80243,1.4405 0,6.13212 3.71764,8.10043 7.86155,4.16234 z m 27.19127,-16.25589 c 0.78967,-0.49272 2.22606,-2.40341 3.19199,-4.24603 1.60271,-3.05742 1.75705,-3.96571 1.76584,-10.39374 0.008,-6.62578 -0.10439,-7.25249 -1.91134,-10.56535 -5.92492,-10.86237 -16.62285,-5.34062 -17.4735,9.01896 -0.74425,12.5631 6.7528,20.97432 14.42701,16.18616 z m -7.25955,-2.85999 c -1.05169,-1.16124 -1.25071,-2.59025 -1.44409,-10.36918 -0.24434,-9.82843 0.38876,-13.42587 2.56803,-14.59219 2.05605,-1.10036 4.23741,0.39355 5.15099,3.52763 1.19976,4.11591 0.96042,16.29207 -0.38974,19.82742 -0.9646,2.52578 -1.38383,2.9532 -2.8966,2.9532 -0.98426,0 -2.3098,-0.59738 -2.98859,-1.34688 z m 66.59075,3.65595 c 2.31349,-0.96666 5.5066,-4.66131 5.5066,-6.37154 0,-1.41378 -1.04613,-1.33756 -3.0269,0.22051 -2.22299,1.74859 -3.78733,1.6085 -5.92654,-0.5307 -1.98197,-1.98199 -3.20361,-5.49717 -3.20916,-9.23425 -0.005,-2.75746 -0.1414,-2.715 7.85946,-2.43296 l 4.98161,0.1755 -0.40717,-2.79329 c -0.87051,-5.97221 -4.5666,-10.79256 -8.27535,-10.79256 -2.32796,0 -5.0965,2.2943 -7.0129,5.81163 -3.66241,6.72198 -2.84295,18.83462 1.61794,23.91531 1.67694,1.9099 2.50963,2.35952 5.25543,2.83761 0.27545,0.048 1.46207,-0.31445 2.63698,-0.80535 z m -4.57851,-21.33064 c -2.32112,-0.30039 -2.53937,-1.05385 -1.21977,-4.21078 1.97949,-4.73553 4.863,-4.47318 6.12982,0.55773 0.41275,1.63917 0.66485,3.06593 0.56022,3.17054 -0.45592,0.45594 -3.56006,0.72974 -5.47027,0.48251 z m -35.3779,19.66187 c 0,-0.80634 -0.4269,-1.28062 -1.1526,-1.28062 -2.3864,0 -2.6897,-1.22857 -2.67956,-10.85352 0.0103,-10.00684 0.41935,-11.86051 2.21896,-10.06089 2.20567,2.20566 4.17448,0.78355 4.17448,-3.01533 0,-2.57743 -1.39085,-4.88487 -2.9444,-4.88487 -0.45375,0 -1.55893,1.2246 -2.45601,2.72136 l -1.63105,2.72138 -0.006,-3.36168 c -0.008,-3.76184 -0.77781,-4.28223 -2.21806,-1.4971 -0.53031,1.02554 -1.89836,2.5957 -3.0401,3.48925 l -2.07584,1.62459 1.42282,1.51456 c 1.34072,1.42714 1.42285,2.07334 1.42285,11.19507 0,9.11818 -0.0744,9.70414 -1.28066,10.08701 -0.70434,0.22353 -1.28064,0.96333 -1.28064,1.64396 0,1.13144 0.49386,1.2375 5.76292,1.2375 5.33604,0 5.76292,-0.0949 5.76292,-1.28067 z m -10.26627,-34.3379 c 3.45761,-2.90938 4.73098,-6.22874 4.7591,-12.40578 0.0358,-7.8586 -1.59056,-10.54534 -8.9226,-14.74034 -2.64963,-1.51595 -3.89591,-2.70086 -4.59131,-4.36521 -1.75675,-4.20447 0.14793,-9.06875 3.55118,-9.06875 1.64823,0 4.58145,2.22061 4.58794,3.47332 0.0104,2.00298 1.45088,5.49123 2.26767,5.49123 0.72583,0 0.93037,-0.99464 0.93037,-4.52437 0,-2.4884 -0.28214,-5.05153 -0.62694,-5.69585 -0.35923,-0.67124 -1.95376,-1.48977 -3.73408,-1.91686 -5.96919,-1.432 -10.26655,1.88245 -11.77692,9.08326 -0.57284,2.73094 -0.56706,4.35205 0.0249,6.99748 1.08932,4.86761 2.71754,7.18838 6.96589,9.92874 2.03739,1.3142 4.49313,3.10319 5.45724,3.97557 4.33665,3.92392 2.0088,12.24729 -3.42526,12.24729 -2.54257,0 -4.36763,-1.85166 -5.69321,-5.77624 -0.69019,-2.04345 -1.61684,-3.59706 -2.21914,-3.72066 -0.89766,-0.18416 -1.00947,0.49144 -0.84731,5.11859 l 0.18682,5.33074 2.24113,1.09384 c 1.23262,0.60161 3.73179,1.10769 5.55371,1.1246 2.66862,0.0246 3.70102,-0.2961 5.31075,-1.6506 z m 15.77015,-0.49286 2.17423,-2.17425 0.80327,1.63492 c 1.25943,2.56331 2.73282,3.19402 4.25129,1.81982 1.42049,-1.2855 2.34167,-4.43019 1.63344,-5.57613 -0.31531,-0.51019 -0.64973,-0.39239 -1.08276,0.38138 -1.25896,2.24968 -1.7379,-0.60815 -1.74773,-10.42899 -0.008,-9.66439 -0.0316,-9.81592 -1.65931,-11.44356 -1.43265,-1.43265 -2.0398,-1.60551 -4.61851,-1.31484 -2.41923,0.27269 -3.40984,0.80728 -5.34996,2.88718 -1.32235,1.41765 -2.70602,3.75963 -3.11202,5.26738 -0.96866,3.59733 -0.12432,4.46604 2.51451,2.58701 1.49948,-1.06773 1.97029,-1.89404 1.97029,-3.45801 0,-3.98281 3.56034,-6.53977 5.10006,-3.66278 0.36458,0.6812 0.66285,2.83157 0.66285,4.77859 v 3.54003 l -3.78246,2.56861 c -5.23939,3.55802 -6.46271,5.2789 -6.46271,9.09129 0,5.82086 4.55464,7.65323 8.70552,3.50235 z m -3.19426,-2.68059 c -0.99734,-2.59902 -0.3535,-4.8369 2.15662,-7.49625 l 2.54527,-2.69657 0.0163,4.17971 c 0.0104,2.7688 -0.32047,4.66011 -0.98079,5.60285 -1.15819,1.65356 -3.17504,1.87497 -3.73711,0.41026 z m 22.02268,3.63643 c 0,-0.50707 -0.50425,-1.47819 -1.12057,-2.15805 -0.92237,-1.01751 -1.15727,-2.73268 -1.32807,-9.69692 l -0.20749,-8.46075 1.90513,-2.03945 c 1.94626,-2.08346 2.98646,-2.42953 4.47171,-1.48758 1.17905,0.74772 2.12587,8.47108 1.90695,15.55529 -0.17007,5.50317 -0.30067,6.03484 -1.62565,6.61614 -0.79238,0.34765 -1.44072,0.99596 -1.44072,1.44073 0,0.58391 1.42357,0.80864 5.12258,0.80864 4.01947,0 5.12263,-0.19755 5.12263,-0.91732 0,-0.50454 -0.5763,-1.10026 -1.28066,-1.3238 -1.20746,-0.38324 -1.28064,-0.96885 -1.28064,-10.24668 0,-5.41628 -0.30705,-10.65059 -0.68298,-11.64277 -1.89767,-5.0085 -5.96133,-6.11991 -9.8601,-2.69674 l -2.26341,1.98731 v -2.9478 c 0,-3.40238 -0.5603,-3.69985 -2.09025,-1.10982 -0.59716,1.01089 -1.95595,2.19844 -3.01954,2.63899 -2.2519,0.93279 -2.44286,2.05757 -0.65314,3.84728 1.15612,1.15613 1.28065,2.1344 1.28065,10.06107 0,8.74041 -0.008,8.78656 -1.70412,10.1392 -0.93723,0.74734 -1.53908,1.6226 -1.33741,1.94503 0.20168,0.32243 2.55331,0.59156 5.22589,0.59808 3.80756,0.008 4.85921,-0.18767 4.85921,-0.91008 z m -0.59824,-49.38981 c 0.6812,-0.36456 1.23857,-0.99849 1.23857,-1.40872 0,-0.55506 -0.19654,-0.5493 -0.76839,0.0225 -1.21756,1.21756 -4.22076,0.93358 -4.97201,-0.47016 -1.52015,-2.84046 -0.0191,-7.72598 2.37372,-7.72598 0.57365,0 1.7099,0.62652 2.52501,1.39226 l 1.48198,1.39228 v -1.35305 c 0,-1.10746 -0.50967,-1.42945 -2.80823,-1.77414 -3.51293,-0.52679 -5.33202,0.38626 -6.54279,3.28405 -0.80961,1.93766 -0.79921,2.42843 0.0876,4.14359 1.44705,2.79828 4.74074,3.91219 7.38439,2.49735 z m -68.43527,-2.21861 c -0.24899,-2.13272 0.58966,-3.04025 1.47928,-1.60081 0.79442,1.28539 1.6008,0.59028 1.6008,-1.37988 0,-1.9166 -0.06,-1.96586 -1.17099,-0.96049 -1.70698,1.5448 -2.1364,1.31531 -1.91113,-1.02132 0.17463,-1.81123 0.40825,-2.05237 1.80149,-1.85988 0.88043,0.12161 1.69744,0.4836 1.81557,0.80439 0.11816,0.32076 0.46573,0.42813 0.77244,0.23855 0.30673,-0.18954 0.39536,-0.76764 0.19698,-1.28462 -0.25817,-0.67277 -1.38793,-0.93999 -3.97408,-0.93999 h -3.61337 v 5.1226 c 0,5.06357 0.0189,5.1226 1.63233,5.1226 1.48846,0 1.60926,-0.19752 1.37068,-2.24115 z m 9.25211,1.12056 c -0.13958,-1.75811 3.41997,-1.94844 3.87531,-0.20718 0.2417,0.92427 0.86555,1.32777 2.05285,1.32777 h 1.70566 l -2.26058,-4.80026 c -1.24329,-2.64016 -2.4155,-4.80126 -2.60491,-4.80244 -0.18939,-9.7e-4 -1.35562,2.15892 -2.59164,4.80025 -1.89188,4.04301 -2.07652,4.80245 -1.16751,4.80245 0.63534,0 1.04315,-0.46123 0.99082,-1.12059 z m 0.98467,-3.07535 c 0.28961,-1.39085 1.42602,-1.47595 1.68596,-0.12632 0.13504,0.7009 -0.17917,1.12056 -0.83859,1.12056 -0.61518,0 -0.96816,-0.41419 -0.84737,-0.9943 z m 12.82996,2.27496 c -0.15992,-1.08919 0.008,-1.92098 0.38746,-1.92098 0.36816,0 1.28493,0.86444 2.03725,1.92098 0.90049,1.26463 1.91935,1.92098 2.982,1.92098 h 1.61412 l -1.68414,-2.00148 c -1.53082,-1.81927 -1.59428,-2.10073 -0.69723,-3.09196 2.29985,-2.54133 -0.006,-5.15176 -4.5496,-5.15176 h -2.69024 l -0.20883,5.12409 -0.20885,5.12411 1.64999,-10e-4 c 1.46887,-0.001 1.61906,-0.21238 1.36807,-1.92247 z m 0.31243,-3.60638 c -0.55905,-0.55904 -0.59011,-3.08263 -0.0447,-3.6281 0.83524,-0.83523 2.87412,0.92383 2.67606,2.30875 -0.198,1.38424 -1.77556,2.1752 -2.63138,1.31935 z m 10.55297,3.03657 c -0.45616,-4.78321 0.21763,-5.11417 2.09898,-1.03099 l 1.77018,3.84194 1.52898,-3.44383 c 0.84094,-1.8941 1.50546,-3.76704 1.47673,-4.1621 -0.0286,-0.39506 -0.47993,0.26269 -1.00268,1.46167 l -0.95046,2.17996 -1.52916,-3.30054 c -1.19137,-2.57148 -1.8539,-3.30052 -2.99935,-3.30052 -1.41083,0 -1.47018,0.20673 -1.47018,5.1226 0,3.07611 0.26258,5.1226 0.65726,5.1226 0.37751,0 0.55614,-1.06012 0.4197,-2.49079 z m 10.4489,-2.65889 c 0,-5.10708 -0.0128,-5.14814 -1.59008,-4.96253 -1.53921,0.18114 -1.59043,0.34588 -1.60081,5.14778 -0.0104,4.8668 0.0196,4.96065 1.59005,4.96253 1.575,0.002 1.60084,-0.0811 1.60084,-5.14778 z m 5.62827,3.86901 c -0.28353,-1.08423 -0.0196,-1.28064 1.72069,-1.28064 1.51708,0 2.14333,0.3355 2.3905,1.28064 0.21349,0.81639 0.87341,1.28067 1.82031,1.28067 h 1.4854 l -2.00892,-4.81292 c -1.1049,-2.6471 -2.2357,-4.73614 -2.51285,-4.64233 -0.27719,0.0938 -1.50469,2.2596 -2.7278,4.8129 -1.9953,4.16534 -2.10098,4.64235 -1.02813,4.64235 0.88044,0 1.10741,-0.33766 0.8608,-1.28067 z m 1.0951,-2.84366 c 0,-1.35467 1.08391,-1.7943 1.53372,-0.62206 0.54765,1.42715 0.504,1.54477 -0.57322,1.54477 -0.52828,0 -0.9605,-0.41523 -0.9605,-0.92271 z m 25.93314,-0.99827 c 0,-5.03707 -0.0267,-5.1226 -1.60079,-5.12314 -1.57416,-4.8e-4 -1.60082,0.0847 -1.60082,5.1212 0,5.03596 0.0268,5.12178 1.60082,5.12315 1.57424,0.001 1.60079,-0.0837 1.60079,-5.12121 z m 5.36694,4.64236 c -0.24265,-1.53683 0.27955,-2.08107 1.99682,-2.08107 1.71723,0 2.23945,0.54424 1.99679,2.08107 -0.0417,0.26413 0.77346,0.48024 1.81149,0.48024 h 1.88735 l -1.9835,-4.3222 c -1.09092,-2.3772 -2.20504,-4.57257 -2.47579,-4.87862 -0.48635,-0.54973 -2.06924,2.13232 -4.01296,6.79961 -0.8594,2.0636 -0.86956,2.40121 -0.0723,2.40121 0.51031,0 0.89368,-0.21611 0.852,-0.48024 z m 0.72595,-3.20164 c 0.006,-0.26413 0.29354,-0.91245 0.64034,-1.44072 0.56045,-0.85377 0.70057,-0.85377 1.26102,0 0.9451,1.43966 0.78711,1.92098 -0.63049,1.92098 -0.70437,0 -1.27626,-0.21613 -1.27087,-0.48026 z"
       style="fill:none;fill-opacity:0;stroke:#008900;stroke-width:0.64032459;stroke-opacity:1" />
  </g>
</svg>
