<?xml version="1.0" encoding="UTF-8" standalone="no"?>
<!-- Created with Inkscape (http://www.inkscape.org/) -->

<svg
   xmlns:dc="http://purl.org/dc/elements/1.1/"
   xmlns:cc="http://creativecommons.org/ns#"
   xmlns:rdf="http://www.w3.org/1999/02/22-rdf-syntax-ns#"
   xmlns:svg="http://www.w3.org/2000/svg"
   xmlns="http://www.w3.org/2000/svg"
   xmlns:sodipodi="http://sodipodi.sourceforge.net/DTD/sodipodi-0.dtd"
   xmlns:inkscape="http://www.inkscape.org/namespaces/inkscape"
   width="218"
   height="291"
   viewBox="0 0 57.679165 76.993749"
   version="1.1"
   id="svg8"
   inkscape:version="0.92.3 (2405546, 2018-03-11)"
   sodipodi:docname="logo.svg">
  <defs
     id="defs2" />
  <sodipodi:namedview
     id="base"
     pagecolor="#ffffff"
     bordercolor="#666666"
     borderopacity="1.0"
     inkscape:pageopacity="0.0"
     inkscape:pageshadow="2"
     inkscape:zoom="1.8250577"
     inkscape:cx="152.03161"
     inkscape:cy="69.765283"
     inkscape:document-units="mm"
     inkscape:current-layer="layer1"
     showgrid="false"
     inkscape:window-width="1920"
     inkscape:window-height="1018"
     inkscape:window-x="-8"
     inkscape:window-y="-8"
     inkscape:window-maximized="1"
     units="px"
     inkscape:measure-start="470.944,33.4578"
     inkscape:measure-end="479.009,33.4921" />
  <metadata
     id="metadata5">
    <rdf:RDF>
      <cc:Work
         rdf:about="">
        <dc:format>image/svg+xml</dc:format>
        <dc:type
           rdf:resource="http://purl.org/dc/dcmitype/StillImage" />
        <dc:title></dc:title>
      </cc:Work>
    </rdf:RDF>
  </metadata>
  <g
     inkscape:label="Capa 1"
     inkscape:groupmode="layer"
     id="layer1"
     transform="translate(0,-220.00626)">
    <g
       id="g845"
       transform="matrix(1.0428526,0,0,1.024091,-12.548688,-5.3558163)">
      <path
         id="rect4652"
         d="M 15.769164,231.82392 V 291.207 H 63.60583 v -59.38308 z m 33.251783,1.3869 c 0.167802,0 0.325879,0.006 0.474227,0.0181 0.148349,0.009 0.289403,0.023 0.423159,0.0398 0.136187,0.0169 0.265082,0.0362 0.386679,0.0579 0.121598,0.0217 0.239545,0.0447 0.353848,0.0688 l 0.02188,1.0606 h -0.240762 l -0.109438,-0.62985 c -0.170235,-0.10376 -0.368439,-0.1834 -0.594611,-0.2389 -0.223738,-0.0579 -0.452341,-0.0868 -0.685807,-0.0868 -0.284536,0 -0.538676,0.0386 -0.762414,0.11582 -0.221307,0.0772 -0.408567,0.20393 -0.56178,0.38009 -0.153212,0.17375 -0.271162,0.40422 -0.353846,0.69139 -0.08025,0.28475 -0.120381,0.63588 -0.120381,1.05336 0,0.36681 0.04013,0.68656 0.120381,0.95926 0.08026,0.27027 0.19577,0.49591 0.346552,0.6769 0.150779,0.17857 0.334391,0.31251 0.550834,0.4018 0.218875,0.0893 0.466934,0.13393 0.744174,0.13393 0.150782,0 0.294266,-0.009 0.430454,-0.029 0.13862,-0.0193 0.266298,-0.0458 0.383032,-0.0796 0.119166,-0.0338 0.224954,-0.0724 0.317367,-0.11584 0.09484,-0.0459 0.173886,-0.0929 0.237116,-0.14117 l 0.134974,-0.72396 H 50.7537 l -0.02188,1.14024 c -0.10214,0.0289 -0.218877,0.0579 -0.3502,0.0868 -0.131326,0.0266 -0.271163,0.0507 -0.419512,0.0724 -0.148348,0.0217 -0.303991,0.0387 -0.466933,0.0507 -0.16294,0.0121 -0.325878,0.0181 -0.48882,0.0181 -0.398838,0 -0.755118,-0.0555 -1.068838,-0.16652 -0.31129,-0.11101 -0.575155,-0.27148 -0.791599,-0.48144 -0.21401,-0.20994 -0.376951,-0.46574 -0.488821,-0.76739 -0.111868,-0.30407 -0.167804,-0.64674 -0.167804,-1.02802 0,-0.43439 0.05594,-0.81085 0.167804,-1.1294 0.114304,-0.31854 0.278459,-0.58158 0.492468,-0.78912 0.216444,-0.20994 0.481526,-0.3656 0.795247,-0.46695 0.313719,-0.10132 0.672434,-0.15203 1.076135,-0.15204 z m -22.970918,0.0145 h 0.693105 l 1.732759,4.60441 0.620142,0.0977 v 0.19185 h -2.068366 v -0.19185 l 0.656626,-0.0977 -0.485173,-1.40087 h -1.9261 l -0.492467,1.40087 0.656623,0.0977 v 0.19185 h -1.608727 v -0.19185 l 0.55448,-0.0977 z m 17.028464,0 h 0.693104 l 1.73276,4.60441 0.620145,0.0977 v 0.19185 h -2.06837 v -0.19185 l 0.656627,-0.0977 -0.485174,-1.40087 h -1.926099 l -0.492467,1.40087 0.656625,0.0977 v 0.19185 h -1.608731 v -0.19185 l 0.554485,-0.0977 z m 12.884432,0 h 0.693105 l 1.73276,4.60441 0.620146,0.0977 v 0.19185 h -2.068367 v -0.19185 l 0.656623,-0.0977 -0.485173,-1.40087 h -1.926096 l -0.492471,1.40087 0.656625,0.0977 v 0.19185 h -1.608731 v -0.19185 l 0.554485,-0.0977 z m -35.596346,0.0398 h 3.6698 v 1.16197 h -0.240762 l -0.116732,-0.78551 c -0.07783,-0.009 -0.172667,-0.0181 -0.284539,-0.0253 -0.109436,-0.007 -0.221305,-0.0121 -0.335607,-0.0145 -0.1143,-0.005 -0.222523,-0.007 -0.324663,-0.007 -0.10214,-0.002 -0.181181,-0.004 -0.237117,-0.004 h -0.798892 v 2.02347 h 1.440926 l 0.113085,-0.57917 h 0.222524 v 1.49138 h -0.222524 l -0.113085,-0.58641 h -1.440926 v 1.88954 l 0.813485,0.0977 v 0.19185 H 20.414 v -0.19185 l 0.58002,-0.0977 v -4.27862 l -0.627441,-0.0941 z m 9.003053,0 h 2.112142 c 0.342904,0 0.628656,0.0302 0.857258,0.0905 0.231037,0.0604 0.415865,0.1472 0.554485,0.26062 0.13862,0.11101 0.237114,0.24616 0.295481,0.40543 0.05837,0.15927 0.08755,0.33905 0.08755,0.53935 0,0.18582 -0.02796,0.35233 -0.0839,0.49954 -0.0535,0.14478 -0.126462,0.27268 -0.218875,0.38369 -0.09242,0.11101 -0.19942,0.20392 -0.321017,0.27873 -0.121598,0.0724 -0.248057,0.12791 -0.379382,0.16651 l 1.324193,1.94023 0.528947,0.0977 v 0.19185 h -1.17098 l -1.375264,-2.12846 h -0.879147 v 1.83888 l 0.740526,0.0977 v 0.19185 h -2.024588 v -0.19185 l 0.580018,-0.0977 v -4.27863 l -0.62744,-0.0941 z m 4.990345,0 h 1.481053 l 1.590492,3.69221 1.736406,-3.69221 h 1.400799 v 0.19185 l -0.62744,0.0941 v 4.27863 l 0.62744,0.0977 v 0.19185 h -1.984465 v -0.19185 l 0.656625,-0.0977 v -3.88407 l -1.951632,4.17365 h -0.127678 l -1.791127,-4.17365 v 3.88407 l 0.656626,0.0977 v 0.19185 h -1.667099 v -0.19185 l 0.627441,-0.0977 v -4.27863 l -0.627441,-0.0941 z m 17.083183,0 h 1.955284 v 0.19185 l -0.627443,0.0941 v 4.27863 l 0.627443,0.0977 v 0.19185 H 51.44316 v -0.19185 l 0.627442,-0.0977 v -4.27863 l -0.627442,-0.0941 z m -20.74204,0.32579 v 2.07416 h 0.645679 c 0.223738,0 0.412214,-0.0193 0.565427,-0.0579 0.153213,-0.041 0.277244,-0.10377 0.372087,-0.18822 0.09484,-0.0868 0.162942,-0.19667 0.204285,-0.32941 0.04134,-0.13272 0.06201,-0.29199 0.06201,-0.47782 0,-0.19306 -0.02311,-0.35475 -0.06931,-0.48505 -0.0462,-0.13031 -0.119164,-0.2353 -0.218874,-0.31492 -0.09728,-0.0796 -0.223738,-0.13635 -0.379381,-0.17013 -0.153213,-0.0338 -0.339258,-0.0507 -0.558132,-0.0507 z m -4.479639,0.15566 -0.83902,2.35649 h 1.703576 z m 17.028464,0 -0.83902,2.35649 h 1.703576 z m 12.884433,0 -0.839021,2.35649 h 1.703578 z m -21.0099,7.35288 c 0.121515,-0.005 0.245459,-0.005 0.371564,5.2e-4 0.288239,0.0133 0.588037,0.0568 0.898951,0.13083 0.741846,0.1766 1.406415,0.51519 1.556094,0.79274 0.143685,0.26642 0.261088,1.32604 0.261088,2.35494 0,1.45948 -0.08526,1.87093 -0.387719,1.87093 -0.340344,0 -0.940777,-1.44245 -0.944812,-2.27066 -0.0026,-0.51798 -1.225223,-1.43604 -1.912028,-1.43604 -1.418031,0 -2.211514,2.01113 -1.479491,3.74962 0.289769,0.68817 0.80899,1.17843 1.91307,1.80525 3.055211,1.73454 3.733194,2.84535 3.718269,6.09474 -0.01171,2.5541 -0.542661,3.9263 -1.983422,5.12929 -0.670762,0.56007 -1.100724,0.69279 -2.212722,0.6826 -0.759181,-0.007 -1.800718,-0.21614 -2.314342,-0.4649 l -0.933865,-0.45248 -0.07765,-2.20395 c -0.06756,-1.91324 -0.02123,-2.19271 0.352807,-2.11656 0.250982,0.0511 0.636886,0.6935 0.924484,1.53843 0.552368,1.62275 1.313243,2.38855 2.372709,2.38855 2.264342,0 3.234418,-3.44164 1.427377,-5.06412 -0.401737,-0.3607 -1.425251,-1.1005 -2.274216,-1.64391 -1.77026,-1.1331 -2.448783,-2.09274 -2.902695,-4.10539 -0.246666,-1.09384 -0.249124,-1.76406 -0.01049,-2.89326 0.516273,-2.44241 1.814227,-3.80372 3.636971,-3.88716 z m 15.10966,5.99182 c 0.178101,-0.005 0.251705,0.37994 0.251705,1.17128 v 1.21884 l 0.943249,-0.8217 c 1.624591,-1.41543 3.317847,-0.95602 4.108592,1.1149 0.156643,0.41026 0.284538,2.57482 0.284538,4.81436 0,3.83623 0.0305,4.07828 0.533637,4.23673 0.293499,0.0924 0.533638,0.3385 0.533638,0.54711 0,0.29765 -0.459667,0.37957 -2.134552,0.37957 -1.541364,0 -2.13455,-0.0932 -2.13455,-0.33457 0,-0.18391 0.270157,-0.45198 0.600343,-0.59573 0.552096,-0.24033 0.606575,-0.46007 0.677468,-2.73555 0.09122,-2.92918 -0.303426,-6.12272 -0.794723,-6.43189 -0.618896,-0.38947 -1.052047,-0.24611 -1.863041,0.61537 l -0.794205,0.8429 0.08651,3.49829 c 0.07117,2.87959 0.16909,3.58901 0.553441,4.00973 0.256813,0.28111 0.466933,0.68288 0.466933,0.89254 0,0.29864 -0.43801,0.37994 -2.024592,0.37594 -1.113641,-0.003 -2.093801,-0.11386 -2.177806,-0.24718 -0.08403,-0.13331 0.166537,-0.49509 0.557088,-0.80411 0.707065,-0.55929 0.710301,-0.57824 0.710301,-4.19227 0,-3.27753 -0.05189,-3.68215 -0.533637,-4.1602 -0.745759,-0.74001 -0.66631,-1.20497 0.27203,-1.59065 0.443195,-0.18217 1.009717,-0.67366 1.258531,-1.09163 0.278924,-0.46854 0.480579,-0.70812 0.619102,-0.71208 z m -5.959128,0.77155 c 0.552456,-0.003 0.806631,0.14833 1.25436,0.59261 0.678204,0.673 0.687507,0.73607 0.691542,4.73213 0.0041,4.06076 0.203412,5.24193 0.728017,4.31171 0.180442,-0.31993 0.319909,-0.36815 0.451301,-0.15719 0.295112,0.47381 -0.08869,1.77375 -0.680596,2.30529 -0.632732,0.56822 -1.246527,0.30748 -1.771325,-0.7524 l -0.335085,-0.67587 -0.905727,0.89876 c -1.729651,1.71633 -3.627589,0.95889 -3.627589,-1.44793 0,-1.57637 0.509992,-2.28775 2.693202,-3.75892 l 1.575899,-1.06216 v -1.46396 c 0,-0.80505 -0.124286,-1.69424 -0.2762,-1.9759 -0.641595,-1.18959 -2.125169,-0.13217 -2.125169,1.51463 0,0.64669 -0.195954,0.98836 -0.820781,1.42983 -1.099603,0.77695 -1.451626,0.41753 -1.047995,-1.06991 0.169179,-0.62342 0.745559,-1.59143 1.296575,-2.17757 0.808424,-0.86003 1.221321,-1.08128 2.229397,-1.19403 0.26863,-0.0301 0.486021,-0.0482 0.670174,-0.0491 z m 0.06045,5.93235 -1.060501,1.11491 c -1.045954,1.09959 -1.314011,2.02494 -0.898429,3.09959 h 5.34e-4 c 0.23421,0.60564 1.07452,0.51411 1.557136,-0.16961 0.275156,-0.38981 0.412601,-1.17182 0.408566,-2.31668 z m -24.266969,0.66191 h 3.086657 c 3.048712,0 3.085918,0.007 3.001712,0.59573 -0.06105,0.42653 -0.293325,0.61953 -0.818695,0.67949 l -0.733753,0.0837 -0.0083,8.52104 c -0.0045,4.68658 -0.118668,9.36464 -0.25379,10.39612 -0.338345,2.5828 -1.231921,4.83182 -2.332062,5.86928 -1.726747,1.62833 -3.275826,0.81454 -3.275826,-1.72097 0,-1.89766 1.241517,-2.26727 2.001142,-0.59572 0.592776,1.30441 1.082359,1.35619 1.281983,0.13548 0.281376,-1.72056 -0.132068,-22.22743 -0.452341,-22.43769 -0.162968,-0.10701 -0.566161,-0.19657 -0.896346,-0.19857 -0.461398,-0.003 -0.600343,-0.15733 -0.600343,-0.66604 z m 19.180735,6.13146 c 0.196028,0.0221 0.298469,0.47318 0.30017,1.34812 l 0.0021,1.39001 0.679555,-1.12525 c 0.373811,-0.61889 0.834438,-1.12524 1.0235,-1.12524 0.647355,0 1.226741,0.95414 1.226741,2.01985 0,1.5708 -0.820443,2.15879 -1.739533,1.24677 -0.749884,-0.74411 -0.920453,0.022 -0.924485,4.15969 -0.0042,3.97977 0.12187,4.48806 1.116261,4.48806 0.302395,0 0.480483,0.19612 0.480483,0.52952 h 5.32e-4 c 0,0.49031 -0.177879,0.52953 -2.401368,0.52953 -2.195575,0 -2.401371,-0.0441 -2.401371,-0.51194 0,-0.28143 0.24014,-0.58703 0.533637,-0.67949 0.502682,-0.15832 0.533638,-0.40086 0.533638,-4.17107 0,-3.77168 -0.03437,-4.03862 -0.593045,-4.62871 l -0.592526,-0.62623 0.864557,-0.67174 c 0.475746,-0.36946 1.045876,-1.0187 1.266869,-1.44275 0.26256,-0.50383 0.471845,-0.74631 0.624313,-0.72913 z m 17.77368,0.48919 c 1.545418,0 3.085582,1.99331 3.448322,4.46271 l 0.169366,1.15524 -2.075661,-0.0729 c -3.333883,-0.11662 -3.276803,-0.13387 -3.274786,1.00631 0.0024,1.54521 0.511342,2.99835 1.337221,3.81787 0.8914,0.88453 1.543336,0.94279 2.469639,0.21978 0.825364,-0.64421 1.261135,-0.67609 1.261135,-0.0915 0,0.70717 -1.330521,2.23502 -2.294539,2.63472 -0.489572,0.20297 -0.984292,0.35283 -1.099064,0.33302 -1.144156,-0.19769 -1.491015,-0.38362 -2.18979,-1.17334 -1.858823,-2.10078 -2.199929,-7.10938 -0.673822,-9.88882 0.798552,-1.45436 1.951943,-2.40304 2.921979,-2.40304 z m -25.489021,0.0202 c 1.094868,0.04 2.208273,0.78214 3.076235,2.36115 0.752969,1.36982 0.80032,1.62896 0.796288,4.3686 -0.0037,2.65789 -0.06799,3.03356 -0.735838,4.29775 -0.402479,0.76189 -1.000866,1.55189 -1.329924,1.75562 -3.197792,1.97981 -6.321891,-1.49839 -6.011762,-6.69305 0.221536,-3.71089 2.046236,-5.99432 3.986127,-6.08852 0.07274,-0.003 0.145883,-0.004 0.218874,-0.002 z m 15.994544,0.24304 c 0.801998,0 1.29283,0.19314 1.953716,0.76895 0.836804,0.72907 0.92816,0.75033 1.753607,0.40594 0.839523,-0.35028 0.880355,-0.33856 1.13867,0.3356 0.296645,0.77425 0.08555,2.1962 -0.326228,2.1962 -0.144745,0 -0.477302,-0.1139 -0.738963,-0.25287 -0.433594,-0.23025 -0.464809,-0.13607 -0.348637,1.06371 0.158034,1.63198 -0.440085,3.30449 -1.564433,4.37325 -0.697767,0.66327 -1.022544,0.7731 -2.284637,0.7731 -1.542927,0 -2.228876,0.45866 -2.228876,1.49085 0,0.68471 0.384886,0.81886 2.549371,0.88582 2.991838,0.0925 4.197187,1.23486 4.197187,3.97765 0,2.14227 -0.975766,3.55925 -2.92667,4.24966 -2.840762,1.00534 -5.687622,-0.41393 -5.687622,-2.83535 0,-0.89312 0.159852,-1.24004 0.87602,-1.90401 l 0.8755,-0.8124 -0.758766,-0.67278 c -0.516738,-0.45818 -0.801532,-1.01074 -0.892696,-1.73182 -0.120519,-0.95386 -0.02718,-1.17292 0.939597,-2.20602 l 1.07353,-1.14748 -0.680077,-1.01924 c -1.045801,-1.56815 -1.158593,-3.75607 -0.290269,-5.63812 0.772321,-1.67398 1.691073,-2.30065 3.370676,-2.30064 z m -16.101375,0.88996 c -0.211641,-0.0142 -0.42889,0.0326 -0.643074,0.14634 -0.908088,0.48225 -1.171695,1.96982 -1.069882,6.0337 0.08058,3.21646 0.163155,3.80726 0.601386,4.28742 0.282849,0.30991 0.835364,0.55694 1.245501,0.55694 0.63036,0 0.805001,-0.17705 1.206938,-1.22143 0.562603,-1.46179 0.662532,-6.49599 0.162593,-8.19785 -0.2855,-0.97191 -0.868535,-1.5626 -1.503462,-1.60512 z m 25.608881,0.0191 c -0.469475,-0.0424 -0.975871,0.41976 -1.388294,1.3988 -0.549876,1.30534 -0.459091,1.61694 0.508103,1.74113 0.79598,0.10226 2.089435,-0.0111 2.279426,-0.1996 0.0436,-0.0433 -0.06147,-0.63312 -0.233466,-1.31088 -0.263932,-1.04012 -0.696297,-1.58706 -1.165769,-1.62945 z m -9.70241,0.20324 c -0.303891,-0.0116 -0.566611,0.0814 -0.75929,0.27251 -1.0363,1.02833 -1.06208,5.40473 -0.0396,6.69458 0.609112,0.76841 0.828526,0.80627 1.397151,0.24201 0.58178,-0.5773 0.816543,-1.56567 0.814527,-3.42331 -0.0031,-2.51934 -0.302811,-3.54109 -1.09646,-3.73875 -0.10949,-0.0273 -0.21503,-0.0432 -0.316325,-0.047 z m 0.242846,14.2481 c -0.967819,0.002 -1.891781,0.0916 -2.053255,0.19858 -0.425877,0.28217 -0.907288,1.2699 -0.907288,1.86213 0,0.71102 0.958172,1.84823 1.67283,1.98521 1.043493,0.19999 1.212624,0.19185 1.978733,-0.0961 1.184444,-0.44531 1.951634,-1.3072 1.951634,-2.19206 0,-1.33978 -0.635264,-1.76269 -2.642654,-1.75768 z m -16.900785,8.13838 c 0.372086,0 0.705262,0.0483 0.999527,0.1448 0.296697,0.0966 0.548404,0.24614 0.755118,0.44886 0.206715,0.2027 0.364793,0.45971 0.474228,0.77101 0.109439,0.31131 0.164158,0.68174 0.164158,1.11128 0,0.42956 -0.05472,0.8024 -0.164158,1.11854 -0.109435,0.31372 -0.267513,0.57314 -0.474228,0.77826 -0.206714,0.20512 -0.458421,0.35836 -0.755118,0.45972 -0.294265,0.0989 -0.627441,0.14839 -0.999527,0.14839 -0.372088,0 -0.705265,-0.0495 -0.999531,-0.14839 -0.294263,-0.10132 -0.544754,-0.2546 -0.751469,-0.45972 -0.206715,-0.20513 -0.364792,-0.46454 -0.474231,-0.77826 -0.109436,-0.31613 -0.164155,-0.68897 -0.164155,-1.11854 0,-0.42953 0.05228,-0.79996 0.156861,-1.11128 0.107005,-0.3113 0.261434,-0.56831 0.463285,-0.77101 0.201851,-0.20272 0.451124,-0.35234 0.747822,-0.44886 0.296697,-0.0966 0.637169,-0.1448 1.021418,-0.1448 z m 5.541179,0 c 0.316153,0 0.616499,0.0193 0.901037,0.0579 0.286969,0.0387 0.559346,0.0917 0.817132,0.15927 v 1.04251 h -0.244411 l -0.0985,-0.60089 c -0.167802,-0.11824 -0.369653,-0.20875 -0.605553,-0.27148 -0.233467,-0.0651 -0.48031,-0.0977 -0.740527,-0.0977 -0.284539,0 -0.538674,0.0398 -0.762413,0.11945 -0.221308,0.0772 -0.408567,0.20391 -0.561779,0.38008 -0.153213,0.17616 -0.271163,0.40784 -0.353847,0.69501 -0.08026,0.28475 -0.120381,0.63347 -0.120381,1.04612 0,0.41749 0.04742,0.76619 0.142268,1.04613 0.09484,0.27752 0.222522,0.49954 0.383032,0.66604 0.162938,0.16652 0.350199,0.28477 0.561776,0.35475 0.214013,0.07 0.438967,0.10497 0.674865,0.10497 0.119167,0 0.237114,-0.007 0.353847,-0.0217 0.119167,-0.0168 0.229819,-0.0374 0.33196,-0.0615 0.104575,-0.0241 0.19699,-0.0507 0.277243,-0.0796 0.08026,-0.029 0.143485,-0.0566 0.18969,-0.0832 v -1.37915 l -0.62744,-0.0941 v -0.19547 h 1.805717 v 0.19547 l -0.477879,0.0941 v 1.57823 c -0.282104,0.0917 -0.575155,0.16893 -0.879146,0.23167 -0.303993,0.0628 -0.631088,0.0941 -0.981288,0.0941 -0.38668,0 -0.735663,-0.0519 -1.046952,-0.15566 -0.308856,-0.10617 -0.572723,-0.26183 -0.791598,-0.46695 -0.218874,-0.20754 -0.38668,-0.46333 -0.503413,-0.7674 -0.116734,-0.30406 -0.1751,-0.65519 -0.1751,-1.05337 0,-0.84945 0.214013,-1.48413 0.642033,-1.90402 0.430454,-0.42232 1.060334,-0.63347 1.88962,-0.63347 z m 22.306997,0.0145 h 0.693105 l 1.732759,4.60441 0.620146,0.0977 v 0.19185 h -2.068369 v -0.19185 l 0.656625,-0.0977 -0.485172,-1.40087 H 57.74676 l -0.492469,1.40087 0.656627,0.0977 v 0.19185 h -1.608732 v -0.19185 l 0.554482,-0.0977 z m -40.718022,0.0398 h 2.221581 c 0.406135,0 0.772142,0.0422 1.098024,0.12671 0.328312,0.0845 0.607984,0.22201 0.839019,0.41265 0.231034,0.19065 0.408567,0.43799 0.532595,0.74205 0.126462,0.30408 0.189692,0.67692 0.189692,1.11854 0,0.39577 -0.05108,0.74689 -0.153213,1.05336 -0.10214,0.30649 -0.25657,0.56469 -0.463285,0.77464 -0.206715,0.20995 -0.468147,0.36922 -0.784301,0.47782 -0.31372,0.10859 -0.683377,0.16289 -1.108967,0.16289 -0.138619,0 -0.290615,-0.001 -0.455986,-0.004 -0.162942,0 -0.32345,-0.001 -0.481527,-0.004 -0.158077,-0.002 -0.308856,-0.005 -0.452341,-0.007 h -0.353846 -0.627441 v -0.19185 l 0.627441,-0.0977 v -4.27863 l -0.627441,-0.0941 z m 5.398916,0 h 2.112141 c 0.342905,0 0.628658,0.0302 0.85726,0.0905 0.231036,0.0604 0.415863,0.14722 0.554484,0.26064 0.138621,0.111 0.237114,0.24614 0.29548,0.40541 0.05837,0.15927 0.08755,0.33906 0.08755,0.53936 2e-6,0.18581 -0.02796,0.35232 -0.0839,0.49953 -0.0535,0.14479 -0.126461,0.27269 -0.218873,0.3837 -0.09242,0.11101 -0.199421,0.20391 -0.321018,0.27873 -0.121595,0.0724 -0.248056,0.1279 -0.379382,0.16649 l 1.324193,1.94023 0.528946,0.0977 v 0.19185 h -1.170989 l -1.375265,-2.12845 h -0.879147 v 1.83887 l 0.740527,0.0977 v 0.19185 H 23.25207 v -0.19194 l 0.58002,-0.0977 v -4.27862 l -0.627442,-0.0941 z m 15.729806,0 h 1.955284 v 0.19187 l -0.627443,0.0941 v 2.91395 c 0,0.19788 0.0231,0.37887 0.06931,0.54297 0.04863,0.16169 0.124028,0.30045 0.226172,0.41628 0.104576,0.11583 0.238332,0.20513 0.40127,0.26786 0.16537,0.0628 0.364791,0.0941 0.598258,0.0941 0.255354,0 0.474227,-0.0313 0.656625,-0.0941 0.182395,-0.0628 0.33196,-0.15082 0.448692,-0.26424 0.119166,-0.11343 0.2055,-0.25097 0.259002,-0.41266 0.05594,-0.16168 0.0839,-0.34026 0.0839,-0.53573 v -2.92843 l -0.656623,-0.0941 v -0.19187 h 1.667096 v 0.19187 l -0.627441,0.0941 v 2.89947 c 0,0.22202 -0.02796,0.438 -0.0839,0.64795 -0.05594,0.20754 -0.154429,0.39215 -0.29548,0.55383 -0.141053,0.16169 -0.334393,0.292 -0.580019,0.39094 -0.243195,0.0989 -0.552049,0.14841 -0.92657,0.14841 -0.649329,0 -1.135718,-0.14479 -1.459166,-0.43437 -0.321015,-0.292 -0.481526,-0.70467 -0.481526,-1.23798 v -2.96825 l -0.62744,-0.0941 z m 5.45728,0 h 3.6698 v 1.16197 h -0.240761 l -0.116732,-0.78549 c -0.07782,-0.009 -0.172669,-0.0181 -0.284539,-0.0253 -0.109435,-0.007 -0.221305,-0.0121 -0.335606,-0.0145 -0.114301,-0.005 -0.222523,-0.007 -0.324666,-0.007 -0.10214,-0.002 -0.181179,-0.004 -0.237114,-0.004 h -0.798893 v 1.89678 h 1.320545 l 0.113085,-0.57917 h 0.233467 v 1.49138 h -0.233467 l -0.113085,-0.58641 h -1.320545 v 1.98003 h 0.96305 c 0.15078,0 0.293048,-9.9e-4 0.426807,-0.004 0.133756,-0.005 0.254136,-0.009 0.361141,-0.0145 0.107006,-0.005 0.198204,-0.0109 0.273594,-0.0181 0.07782,-0.007 0.134973,-0.0145 0.171452,-0.0217 l 0.207933,-0.89772 h 0.240761 l -0.06931,1.28142 H 44.39174 v -0.19184 l 0.627442,-0.0977 v -4.27863 l -0.627442,-0.0941 z m 4.567188,0 h 2.112143 c 0.342905,0 0.628659,0.0302 0.85726,0.0905 0.231036,0.0604 0.415861,0.14722 0.554485,0.26064 0.13862,0.111 0.237114,0.24614 0.29548,0.40541 0.05837,0.15927 0.08755,0.33906 0.08755,0.53936 0,0.18581 -0.02796,0.35232 -0.0839,0.49953 -0.0535,0.14479 -0.126461,0.27269 -0.218874,0.3837 -0.09242,0.11101 -0.19942,0.20391 -0.321018,0.27873 -0.121597,0.0724 -0.248058,0.1279 -0.379381,0.16649 l 1.324193,1.94023 0.528946,0.0977 v 0.19185 h -1.170989 l -1.375265,-2.12845 h -0.879147 v 1.83887 l 0.740526,0.0977 v 0.19185 h -2.024592 v -0.19194 l 0.580019,-0.0977 v -4.27862 l -0.627443,-0.0941 z m 5.045067,0 h 1.955281 v 0.19187 l -0.62744,0.0941 v 4.27862 l 0.62744,0.0977 v 0.19184 h -1.955284 v -0.19184 l 0.627441,-0.0977 v -4.27862 l -0.627441,-0.0941 z m -23.328411,0.2353 c -0.316155,0 -0.578804,0.0507 -0.787952,0.15203 -0.209145,0.10132 -0.37574,0.24736 -0.499762,0.438 -0.124031,0.18822 -0.21158,0.41749 -0.262652,0.68777 -0.05108,0.27027 -0.07661,0.57313 -0.07661,0.90857 0,0.33785 0.02553,0.64312 0.07661,0.91582 0.05108,0.27268 0.138621,0.50556 0.262652,0.69862 0.124022,0.19306 0.290617,0.34267 0.499762,0.44885 0.209148,0.10377 0.471797,0.15564 0.787952,0.15564 0.31615,0 0.578801,-0.0519 0.787947,-0.15564 0.209148,-0.10618 0.375738,-0.25579 0.499765,-0.44885 0.126462,-0.19306 0.215227,-0.42594 0.266299,-0.69862 0.05107,-0.2727 0.07661,-0.57797 0.07661,-0.91582 0,-0.33544 -0.02553,-0.6383 -0.07661,-0.90857 -0.05108,-0.27028 -0.139837,-0.49955 -0.266299,-0.68777 -0.124027,-0.19064 -0.290617,-0.33665 -0.499765,-0.438 -0.209146,-0.10132 -0.471797,-0.15203 -0.787947,-0.15203 z m -11.538355,0.0905 v 4.18813 c 0.07295,0.005 0.151996,0.008 0.237114,0.0109 0.08512,0.002 0.172667,0.006 0.262649,0.0109 l 0.269947,0.007 h 0.269944 c 0.308857,0 0.572724,-0.0447 0.7916,-0.13393 0.221304,-0.0917 0.402485,-0.22686 0.543539,-0.40542 0.141051,-0.18099 0.244409,-0.40544 0.310073,-0.67328 0.06809,-0.26786 0.102139,-0.58038 0.102139,-0.93754 0,-0.35715 -0.04986,-0.66485 -0.149565,-0.92305 -0.09971,-0.26063 -0.243195,-0.4754 -0.430455,-0.64432 -0.184827,-0.16893 -0.408565,-0.29442 -0.671215,-0.37647 -0.262651,-0.0821 -0.5557,-0.12308 -0.879149,-0.12308 z m 5.398913,0 v 2.07416 h 0.645681 c 0.223738,0 0.412216,-0.0193 0.565426,-0.0579 0.153213,-0.041 0.277242,-0.10377 0.372089,-0.18823 0.09484,-0.0868 0.162938,-0.19667 0.204282,-0.3294 0.04134,-0.13272 0.06201,-0.292 0.06201,-0.47781 0,-0.19307 -0.0231,-0.35475 -0.06931,-0.48506 -0.04621,-0.13032 -0.119166,-0.23529 -0.218877,-0.31493 -0.09728,-0.0796 -0.223738,-0.13635 -0.379381,-0.17012 -0.153213,-0.0338 -0.339257,-0.0507 -0.558132,-0.0507 z m 25.754276,0 v 2.07416 h 0.645681 c 0.223738,0 0.412213,-0.0193 0.565427,-0.0579 0.153212,-0.041 0.27724,-0.10377 0.372086,-0.18823 0.09484,-0.0868 0.162941,-0.19667 0.204285,-0.3294 0.04134,-0.13272 0.06201,-0.292 0.06201,-0.47781 0,-0.19307 -0.0231,-0.35475 -0.06931,-0.48506 -0.04621,-0.13032 -0.119165,-0.23529 -0.218875,-0.31493 -0.09728,-0.0796 -0.223738,-0.13635 -0.379383,-0.17012 -0.153211,-0.0338 -0.339256,-0.0507 -0.55813,-0.0507 z m 8.404795,0.15566 -0.839019,2.35649 h 1.703573 z"
         style="opacity:1;fill:#017137;fill-opacity:1;stroke:none;stroke-width:0.26578927;stroke-opacity:1"
         inkscape:connector-curvature="0" />
      <path
         id="rect5122"
         d="m 13.137181,229.62749 v 0.006 h -1.098642 v 65.88125 h 55.297917 v -65.88125 h -0.979785 v -0.006 z m 0.884701,0.79117 h 51.331232 v 62.72691 H 14.021882 Z"
         style="opacity:1;fill:#017137;fill-opacity:1;stroke:#017137;stroke-width:0.01110079;stroke-miterlimit:4;stroke-dasharray:none;stroke-opacity:1"
         inkscape:connector-curvature="0" />
    </g>
    <text
       xml:space="preserve"
       style="font-style:normal;font-variant:normal;font-weight:normal;font-stretch:normal;font-size:11.28888889px;line-height:1.25;font-family:'Arabic Typesetting';-inkscape-font-specification:'Arabic Typesetting, Normal';font-variant-ligatures:normal;font-variant-caps:normal;font-variant-numeric:normal;font-feature-settings:normal;text-align:start;letter-spacing:0px;word-spacing:0px;writing-mode:lr;text-anchor:start;fill:#017137;fill-opacity:1;stroke:none;stroke-width:1.02961099;stroke-miterlimit:4;stroke-dasharray:none;stroke-opacity:1;"
       x="9.6076546"
       y="230.64178"
       id="text839"
       transform="scale(1.0091186,0.9909638)"><tspan
         sodipodi:role="line"
         id="tspan837"
         x="9.6076546"
         y="230.64178"
         style="font-style:normal;font-variant:normal;font-weight:normal;font-stretch:normal;font-size:11.28888889px;font-family:'Arabic Typesetting';-inkscape-font-specification:'Arabic Typesetting, Normal';font-variant-ligatures:normal;font-variant-caps:normal;font-variant-numeric:normal;font-feature-settings:normal;text-align:start;writing-mode:lr;text-anchor:start;fill:#017137;fill-opacity:1;stroke:none;stroke-width:1.02961099;stroke-miterlimit:4;stroke-dasharray:none;stroke-opacity:1;">BODEGA</tspan></text>
  </g>
</svg>
